<svg xmlns="http://www.w3.org/2000/svg" viewBox="0 0 2964 1762">
  <defs>
    <style>
      .cls-1 {
        fill: #fff;
      }
    </style>
  </defs>
  <title>backgroundblack</title>
  <g id="Capa_2" data-name="Capa 2">
    <path class="cls-1" d="M1468.927,1468.432a424.007,424.007,0,0,1,77.985,14.863c24.766,7.178,48.8,17.2,74.255,21.856,13.966,2.551,28.221,3.3,42.265.912,1.9-.322,1.094-3.214-.8-2.892-25.318,4.3-50.726-2.208-74.739-9.861-12.259-3.907-24.394-8.2-36.722-11.888q-18.909-5.657-38.289-9.538a430.822,430.822,0,0,0-43.957-6.452c-1.921-.182-1.909,2.819,0,3Z"/>
    <path class="cls-1" d="M1488.847,1467l-61.087,13.407c-1.885.413-1.087,3.306.8,2.892l61.087-13.406c1.885-.414,1.087-3.307-.8-2.893Z"/>
    <path class="cls-1" d="M1422.342,1482.555l-.161,39.382c-.026,6.429-.074,12.858-.077,19.286,0,5.333.239,11.087,3.308,15.668,2.7,4.026,6.975,6.432,11.407,8.12,5.361,2.041,11.037,3.353,16.563,4.863q18.591,5.08,37.324,9.618t37.587,8.527c6.141,1.3,12.306,2.526,18.616,2.249,6.273-.275,12.451-1.612,18.6-2.8l76.795-14.824c4.64-.9,10.54-1.973,11.283-7.635.37-2.819-.671-5.566-1.448-8.227q-1.23-4.214-2.114-8.518a107.616,107.616,0,0,1-1.175-36.431c.407-2.9.938-5.778,1.574-8.635.419-1.881-2.473-2.684-2.893-.8a111.192,111.192,0,0,0,.973,52.507c.7,2.653,1.858,5.348,2.129,8.089a4.857,4.857,0,0,1-3.331,5.368,42.48,42.48,0,0,1-7.752,1.764l-9.293,1.794-18.588,3.588-37.419,7.223c-6.131,1.183-12.253,2.462-18.409,3.506a57.427,57.427,0,0,1-18.534.469c-6.062-.938-12.065-2.391-18.054-3.706q-9.112-2-18.195-4.129-18.167-4.258-36.207-9.027-9.138-2.415-18.241-4.961c-4.7-1.314-9.581-2.512-13.783-5.083-4.505-2.757-6.846-7.03-7.452-12.225-.677-5.812-.248-11.827-.224-17.667l.154-37.886.039-9.472a1.5,1.5,0,0,0-3,0Z"/>
    <path class="cls-1" d="M1465.472,1530.57c-2.383-2.035-5.413-.792-7.116,1.474a7.191,7.191,0,0,0-.569,7.33,10.71,10.71,0,0,0,11.675,5.8c4.811-1.074,7.314-6.156,6.78-10.773a11.3,11.3,0,0,0-2.742-6.328,9.548,9.548,0,0,0-6.394-3.024c-5.532-.441-11.29,3.689-12.348,9.185a1.54,1.54,0,0,0,1.048,1.845,1.513,1.513,0,0,0,1.845-1.048,9.033,9.033,0,0,1,7.432-6.911,6.839,6.839,0,0,1,7.695,4.462c1.054,2.975.616,6.742-1.9,8.684-2.688,2.07-6.6,1.133-8.936-1.146a5.572,5.572,0,0,1-1.872-4.751,3.937,3.937,0,0,1,1.488-2.373,2.323,2.323,0,0,1,1.148-.513.774.774,0,0,1,.648.21,1.541,1.541,0,0,0,2.122,0,1.515,1.515,0,0,0,0-2.122Z"/>
    <path class="cls-1" d="M1607.07,1535.216c-3.819-2.516-7.712,1.305-8.574,4.96a7.048,7.048,0,0,0,.921,5.764,10.852,10.852,0,0,0,5.935,3.868,24.508,24.508,0,0,0,7.288.68c.57-.017,1.14-.044,1.709-.077a2.417,2.417,0,0,0,1.939-1,9.874,9.874,0,0,0,1.756-3.15c1.476-4.318-.112-9.654-4.141-12a10.5,10.5,0,0,0-13.642,3.13,1.5,1.5,0,0,0,2.59,1.514,7.488,7.488,0,0,1,8.035-2.686,6.766,6.766,0,0,1,4.692,6.912,6.962,6.962,0,0,1-1.895,4.69l1.061-.439c-3.78.234-8.28.494-11.5-1.816a6.84,6.84,0,0,1-.921-.817,3.438,3.438,0,0,1-.68-.9,3.089,3.089,0,0,1-.294-.824,3.443,3.443,0,0,1-.091-.942,2.964,2.964,0,0,1,.085-.889,7.572,7.572,0,0,1,.343-1.179c.061-.161.007-.027-.007,0,.04-.093.084-.185.129-.276.088-.181.183-.359.286-.532.089-.149.185-.293.282-.437.019-.028.2-.269.1-.142-.087.11.165-.188.159-.181.126-.14.259-.272.4-.4.067-.062.138-.123.208-.18-.163.132-.014.008.076-.047.168-.1.333-.2.511-.293-.268.132.139-.042.236-.073.079-.025.163-.039.244-.056-.2.044-.13,0,.035,0,.107,0,.618.067.3,0a3.349,3.349,0,0,1,.511.146c-.222-.088.323.2.409.256a1.5,1.5,0,0,0,1.514-2.591Z"/>
    <path class="cls-1" d="M1498.6,1550.23q33.1-2.625,66.332-2.79,9.415-.043,18.831.112l-1.5-1.5c-.562,5.647-4.854,11.693-10.852,12.279-5.572.544-11.541-5.093-9.756-10.8a1.51,1.51,0,0,0-2.507-1.459c-3.927,4.438-9.038,9.748-15.379,10.056-4.734.23-10.561-2.923-10.441-8.227.044-1.946-2.87-1.909-3,0-.347,5.066-3.668,10.936-9.139,11.691-4.708.65-9.944-4.365-7.993-9.1.666-1.614-1.883-2.55-2.741-1.155-3.319,5.392-12.47,5.943-16.267.762-1.13-1.541-3.734-.046-2.591,1.514,5.115,6.978,16.865,6.685,21.448-.762l-2.742-1.156c-2.67,6.474,4.228,13.39,10.638,12.917,7.35-.542,11.924-7.958,12.387-14.716h-3c-.15,6.6,6.391,11.021,12.464,11.233,7.582.265,13.817-5.674,18.477-10.941l-2.507-1.46c-2.311,7.388,4.929,15.018,12.3,14.621,7.918-.426,13.459-7.884,14.2-15.3a1.517,1.517,0,0,0-1.5-1.5q-33.2-.54-66.376,1.383-9.4.549-18.787,1.3c-1.911.152-1.928,3.153,0,3Z"/>
    <path class="cls-1" d="M1511.252,1569.408q30.228.39,60.394-2.1a1.53,1.53,0,0,0,1.447-1.9c-.912-5.3-5.522-7.361-10.464-7.475-4.762-.11-11.364,2.764-9.149,8.611l2.507-1.46c-3.667-3.567-8.628-4.964-13.682-4.873-4.022.072-9.394,1.748-9,6.72l2.947-.4a6.326,6.326,0,0,0-3.156-4.894,16.163,16.163,0,0,0-6.371-1.383c-2.113-.162-4.643-.036-6.454,1.2-2.013,1.372-2.062,3.588-1.073,5.622l2.591-1.514c-1.4-1.963-3.354-3.819-5.957-3.511-2.63.311-4.459,2.531-5.786,4.63-1.035,1.636,1.56,3.143,2.59,1.514.757-1.2,1.823-2.809,3.318-3.14,1.4-.31,2.523,1.013,3.244,2.021a1.5,1.5,0,0,0,2.591-1.514c-1.419-2.919,4.54-2.36,5.993-2.2a10.936,10.936,0,0,1,3.8.87,3.663,3.663,0,0,1,1.777,3.1c.237,1.662,3.08,1.284,2.946-.4-.275-3.474,4.448-3.8,6.96-3.711,3.984.147,7.695,1.159,10.6,3.986,1,.976,3.062.006,2.507-1.46-1.556-4.106,4.058-4.955,6.942-4.784a9.494,9.494,0,0,1,4.573,1.242,5.538,5.538,0,0,1,2.312,4l1.446-1.9q-30.128,2.487-60.394,2.1a1.5,1.5,0,0,0,0,3Z"/>
    <path class="cls-1" d="M1653.465,1536.309a21.57,21.57,0,0,1,14.662-8.9l-1.3-.742a9.767,9.767,0,0,1-12.72,13.822c-1.723-.86-3.244,1.727-1.515,2.591a13.251,13.251,0,0,0,12.324-.329,12.639,12.639,0,0,0,6.258-10.547,12.81,12.81,0,0,0-1.756-7.052,1.47,1.47,0,0,0-1.3-.743,24.85,24.85,0,0,0-17.252,10.388,1.512,1.512,0,0,0,.538,2.052,1.53,1.53,0,0,0,2.052-.538Z"/>
    <path class="cls-1" d="M1409.142,1524.28c-4.625-3.794-11.9-1.125-14.072,4.164a7.4,7.4,0,0,0,1.361,7.662,9.919,9.919,0,0,0,6.828,3.131,8.3,8.3,0,0,0,7.561-3.552c1.067-1.616-1.53-3.12-2.59-1.514-.078.118-.156.237-.244.349.162-.207-.03.027-.075.073-.175.181-.347.36-.537.527-.037.033-.221.177-.013.019-.108.082-.219.158-.333.231a6.655,6.655,0,0,1-.706.393c-.047.023-.263.114-.012.011-.126.052-.254.1-.382.141q-.323.108-.656.186c-.08.019-.716.131-.413.091a7.967,7.967,0,0,1-.831.061,6.35,6.35,0,0,1-2.644-.4c-.084-.028-.677-.258-.427-.15-.234-.1-.463-.216-.687-.339s-.438-.254-.648-.4c-.075-.052-.15-.105-.224-.159.238.175-.131-.11-.176-.15a7.068,7.068,0,0,1-.535-.518c-.061-.067-.12-.135-.179-.2-.287-.33.155.236-.1-.121a6.485,6.485,0,0,1-.36-.569c-.055-.1-.1-.2-.156-.3-.163-.318,0,.052-.086-.207a6.438,6.438,0,0,1-.194-.667c-.026-.115-.05-.231-.067-.348-.041-.265.015.35-.009-.131a6.524,6.524,0,0,1,0-.753c0-.024.064-.5.013-.19.024-.145.054-.29.088-.432a3.75,3.75,0,0,1,.429-1.144,4.964,4.964,0,0,1,.845-1.207,7.012,7.012,0,0,1,2.446-1.782,3.3,3.3,0,0,1,.633-.25,8.541,8.541,0,0,1,.876-.243c.1-.022.2-.042.3-.06s.2-.034.3-.049c-.151.023-.136.023.047,0a7.757,7.757,0,0,1,.889-.023,4.9,4.9,0,0,1,2.626.942,1.543,1.543,0,0,0,2.122,0,1.512,1.512,0,0,0,0-2.121Z"/>
    <path class="cls-1" d="M1397.035,1492.209q1.194,31.288,2.344,62.579,1.314,35.39,2.63,70.777.6,16.033,1.207,32.065c.074,1.925,3.074,1.934,3,0q-1.194-31.289-2.343-62.579-1.314-35.389-2.63-70.778-.6-16.032-1.208-32.064c-.073-1.925-3.073-1.934-3,0Z"/>
    <path class="cls-1" d="M1392.256,1484.916c-2.9-10.269,3.647-22.055,13.916-24.99a1.536,1.536,0,0,0,1.1-1.446l.516-17.527-2.946.4,4.693,14.194c.6,1.824,3.5,1.043,2.892-.8l-4.692-14.194a1.508,1.508,0,0,0-2.947.4l-.516,17.527,1.1-1.447c-11.821,3.379-19.354,16.84-16.012,28.681a1.5,1.5,0,0,0,2.893-.8Z"/>
    <path class="cls-1" d="M1414.2,1444.253c1.964-6.728,8.6-10.544,14.68-13.058a177.373,177.373,0,0,1,19.362-6.461,256.8,256.8,0,0,1,41.83-8.176,248.237,248.237,0,0,1,43.673-1.073,192.092,192.092,0,0,1,42.138,7.319,134.979,134.979,0,0,1,36.752,16.91q2.07,1.387,4.077,2.865c1.558,1.144,3.056-1.459,1.514-2.59a132.519,132.519,0,0,0-36.91-18.622,188.623,188.623,0,0,0-42.695-8.506,244.035,244.035,0,0,0-44.789.307,263.052,263.052,0,0,0-43.271,7.81c-6.687,1.8-13.307,3.881-19.8,6.284-6.459,2.389-13.313,5.573-17.277,11.478a17.017,17.017,0,0,0-2.173,4.715,1.5,1.5,0,0,0,2.893.8Z"/>
    <path class="cls-1" d="M1659.544,1481.7c2.133.647,3.117-1.779,2.28-3.43-.986-1.943-3.437-1.623-4.52.065a6.674,6.674,0,0,0-.839,3.233c-.108,1.662-.151,3.33-.227,4.993l-.442,9.736-1.78,39.193-3.537,77.887-2,43.936c-.088,1.93,2.913,1.926,3,0l3.22-70.9q1.611-35.448,3.22-70.9l.907-19.971.442-9.736c.071-1.55.028-3.157.225-4.7.04-.307.409-.979.394-1.227s.091.824-.745-.281l.009-.026a1.325,1.325,0,0,1,1.187-.776c-1.852-.562-2.643,2.333-.8,2.893Z"/>
    <path class="cls-1" d="M1589.769,1660.908c25.684-.483,51.364-.541,77.044.185q11.506.325,23.008.793c1.931.077,1.927-2.923,0-3-25.669-1.019-51.343-1.531-77.032-1.306q-11.511.1-23.02.328c-1.928.037-1.934,3.037,0,3Z"/>
    <path class="cls-1" d="M1402.269,1672.183q30.858-3.447,61.833-5.546,9.418-.648,18.841-1.24c1.917-.122,1.931-3.123,0-3-20.656,1.316-41.3,2.758-61.9,4.8q-9.393.93-18.775,1.986c-1.9.212-1.919,3.214,0,3Z"/>
    <path class="cls-1" d="M1617.511,1448.651a51.944,51.944,0,0,1,35.117,26.126,48.737,48.737,0,0,1,4.581,12.014c.445,1.878,3.339,1.083,2.893-.8a54.848,54.848,0,0,0-29.048-35.917,51.71,51.71,0,0,0-12.745-4.318c-1.886-.371-2.693,2.52-.8,2.892Z"/>
    <path class="cls-1" d="M1523.816,1632.989h.567a1.541,1.541,0,0,0,1.5-1.5l-.053-.4a1.505,1.505,0,0,0-.386-.662l-.3-.235a1.5,1.5,0,0,0-.757-.2h-.567a1.14,1.14,0,0,0-.578.13,1.541,1.541,0,0,0-.922,1.37l.054.4a1.5,1.5,0,0,0,.386.662l.3.235a1.49,1.49,0,0,0,.757.2Z"/>
    <path class="cls-1" d="M1555.129,1629.316v-.567a1.541,1.541,0,0,0-1.5-1.5l-.4.054a1.5,1.5,0,0,0-.662.385l-.235.3a1.491,1.491,0,0,0-.205.757v.567a1.137,1.137,0,0,0,.13.578,1.114,1.114,0,0,0,.31.483,1.664,1.664,0,0,0,1.06.439l.4-.053a1.505,1.505,0,0,0,.662-.386l.235-.3a1.5,1.5,0,0,0,.2-.757Z"/>
    <path class="cls-1" d="M1520.787,1637.363a7.442,7.442,0,0,0,3.019.9,8.832,8.832,0,0,0,3.008-.557,1.5,1.5,0,0,0-.8-2.893,11.325,11.325,0,0,1-1.81.46l.4-.054a4.472,4.472,0,0,1-1.15.013l.4.053a5.236,5.236,0,0,1-1.282-.374l.358.151c-.212-.09-.42-.188-.627-.291a1.5,1.5,0,0,0-1.514,2.59Z"/>
    <path class="cls-1" d="M1550.635,1635.515a10.531,10.531,0,0,0,1.555.136,9.831,9.831,0,0,0,1.512-.151,13.021,13.021,0,0,0,2.353-.678,1.615,1.615,0,0,0,.9-.69,1.5,1.5,0,0,0-1.694-2.2,12.417,12.417,0,0,1-2.618.717l.4-.054a7.561,7.561,0,0,1-1.919-.011l.4.053-.087-.012a1.648,1.648,0,0,0-1.155.151,1.5,1.5,0,0,0-.539,2.053,1.443,1.443,0,0,0,.9.689Z"/>
    <path class="cls-1" d="M1555.108,1622.1c3.865,15.713,6.9,31.619,11.131,47.243a1.5,1.5,0,0,0,2.893-.8c-4.233-15.623-7.266-31.53-11.131-47.243-.461-1.874-3.355-1.08-2.893.8Z"/>
    <path class="cls-1" d="M1522.524,1621.572l-.633-2.887a1.516,1.516,0,0,0-2.507-.662c-3.222,2.859-5.6,6.484-7.973,10.04-2.553,3.817-4.886,7.7-7.09,11.73a84.71,84.71,0,0,1-8.012,11.371q-4.28,5.454-8.8,10.711-5.211,6.059-10.728,11.84a1.52,1.52,0,0,0,.3,2.356,1.367,1.367,0,0,1,.593,1.643l1.447-1.1a2.814,2.814,0,0,0-2.786,1.515l2.356-.3a.681.681,0,0,1-.248-.592l-2.893.8a3.541,3.541,0,0,1-.331,2.32l2.356-.3a13.093,13.093,0,0,1-1.662-2.931c-.51-1.2-2.474-.818-2.742.359-.353,1.549-1.071,4.924-3.373,4.166l1.1,1.447a8.42,8.42,0,0,1,1.387-4.713c1.016-1.534,2.622-2.5,3.933-3.749,2.844-2.712,5.195-6.112,7.606-9.2a114.632,114.632,0,0,0,12.452-19.347c3.368-6.755,6.144-13.78,9.153-20.7,1.492-3.43,3.042-6.837,4.747-10.168a25.467,25.467,0,0,1,4.821-7.168c2.839-2.672,6.619-2.728,10.279-2.111,4.085.689,8.086,1.974,12.268,1.881a1.521,1.521,0,0,0,1.5-1.5c-.087-5.941.148-11.881.154-17.822l-1.9,1.446c2.076.641,4.225.262,6.284.9l-1.048-1.845c-.706,3.561-1.268,7.155-1.8,10.746-.323,2.206-1.479,5.755.606,7.455,1.327,1.083,3.555.7,5.142.721,2.249.023,4.5-.118,6.75-.012a17.371,17.371,0,0,1,6.925,1.392,11.21,11.21,0,0,1,4.275,4.688,53.124,53.124,0,0,1,4.6,11.907,62.532,62.532,0,0,0,4.457,11.895c2.228,4.314,4.575,8.573,6.812,12.885a59.188,59.188,0,0,0,7.578,11.778,41.714,41.714,0,0,0,5.764,5.21c1.716,1.362,3.941,3.074,4.38,5.363.143.746.3,1.747-.695,1.619-1.077-.139-1.731-1.1-2.322-1.9a9.755,9.755,0,0,0-2.577-2.694,7.2,7.2,0,0,0-1.6-.666,2.873,2.873,0,0,0-.632-.193,1.089,1.089,0,0,1-.368-.173q.415,1.154-1.175.514l1.818-2.355a73.983,73.983,0,0,1-10.681-9.27,66.68,66.68,0,0,1-7.875-11.033c-4.994-8.45-9.421-17.262-14.064-25.908-.913-1.7-3.5-.188-2.59,1.514,4.778,8.9,9.3,18,14.512,26.661a67.925,67.925,0,0,0,8.19,11.209,79.522,79.522,0,0,0,10.994,9.417c1.4,1.048,2.953-1.168,1.818-2.356-1.695-1.773-4.209.4-3.781,2.461a3.189,3.189,0,0,0,2.25,2.16,5.173,5.173,0,0,1,2.753,1.672c1.468,1.82,2.657,3.713,5.22,3.937,2.461.215,3.926-1.683,3.868-4.014-.127-5.209-5.506-7.852-8.839-10.958-3.766-3.509-6.43-7.958-8.817-12.472-1.22-2.309-2.373-4.653-3.573-6.973-1.279-2.473-2.724-4.857-3.981-7.34-2.088-4.124-3.255-8.489-4.559-12.9-1.36-4.6-3.128-9.481-6.146-13.265-3.3-4.142-8.677-4.849-13.685-4.852-2.6,0-5.244.206-7.84.031-.615-.041-.5.05-.516-.484a11.817,11.817,0,0,1,.208-1.844c.565-4.273,1.243-8.55,2.082-12.779a1.539,1.539,0,0,0-1.048-1.845c-2.076-.641-4.225-.262-6.284-.9a1.514,1.514,0,0,0-1.9,1.446c-.006,5.941-.241,11.881-.154,17.822l1.5-1.5c-7.151.159-14.832-4.422-21.759-.974-2.748,1.367-4.762,3.9-6.333,6.468a89.161,89.161,0,0,0-4.884,9.664c-3.251,7.139-6.079,14.465-9.418,21.565a112.207,112.207,0,0,1-12.518,20.565c-1.464,1.912-2.97,3.792-4.482,5.666a42.625,42.625,0,0,1-4.387,5.049c-1.6,1.448-3.287,2.639-4.383,4.554a11.5,11.5,0,0,0-1.482,5.719,1.54,1.54,0,0,0,1.1,1.446,4.748,4.748,0,0,0,4.69-1.162c1.424-1.325,1.956-3.269,2.373-5.1l-2.742.358a15.778,15.778,0,0,0,2.132,3.538,1.507,1.507,0,0,0,2.356-.3,6.965,6.965,0,0,0,.633-4.632c-.365-1.9-3.222-1.085-2.893.8a3.578,3.578,0,0,0,1.019,1.915,1.513,1.513,0,0,0,2.356-.3c-.037-.127.029-.137.2-.029a1.505,1.505,0,0,0,1.446-1.1,4.442,4.442,0,0,0-1.971-5.032l.3,2.356q9.647-10.122,18.363-21.075a124,124,0,0,0,8.264-11.07c2.421-3.865,4.416-7.958,6.924-11.782,2.7-4.121,5.334-8.465,9.053-11.765l-2.507-.662.633,2.887c.413,1.885,3.306,1.087,2.892-.8Z"/>
    <path class="cls-1" d="M1514.191,1670.683c.771-8.043,1.208-16.119,2.2-24.14a110.43,110.43,0,0,1,5.7-24.439c.663-1.816-2.235-2.6-2.893-.8a113.186,113.186,0,0,0-5.755,24.8c-1.03,8.165-1.469,16.389-2.254,24.578-.185,1.921,2.817,1.908,3,0Z"/>
    <path class="cls-1" d="M1538,1681.851a4.476,4.476,0,0,0,.176,1c.091.356.19.709.289,1.062a14.848,14.848,0,0,1,.48,1.86l-.053-.4c0,.024,0,.047.006.071a1.558,1.558,0,0,0,.439,1.061,1.5,1.5,0,0,0,2.561-1.061,4.477,4.477,0,0,0-.177-1c-.09-.356-.19-.709-.288-1.062a15.027,15.027,0,0,1-.481-1.86l.054.4a.567.567,0,0,1-.006-.071,1.563,1.563,0,0,0-.439-1.061,1.5,1.5,0,0,0-2.561,1.061Z"/>
    <path class="cls-1" d="M1539.057,1651.828l-.753-.384a1.111,1.111,0,0,0-.558-.178,1.539,1.539,0,0,0-1.494.716l-.151.359a1.5,1.5,0,0,0,0,.8l.151.358a1.51,1.51,0,0,0,.538.539l.753.383a1.111,1.111,0,0,0,.558.178,1.539,1.539,0,0,0,1.494-.716l.151-.358a1.5,1.5,0,0,0,0-.8l-.151-.358a1.5,1.5,0,0,0-.538-.538Z"/>
    <path class="cls-1" d="M1514.362,1695.612c-8.315.65-17.541-2.667-21.9-10.136a1.513,1.513,0,0,0-2.591,0,8.844,8.844,0,0,0,1.063,9.792l1.06-2.561a6.536,6.536,0,0,0-5.09,2.922,1.456,1.456,0,0,0,0,1.515,5.724,5.724,0,0,0,3.851,2.455l-.662-2.507c-.982.914-2.364,1.214-3.229,2.272s-1.365,2.713-.344,3.829c1.687,1.843,5.191.137,6.457-1.43l-2.507-1.459c-.235,1.215-.662,2.376-.9,3.591a1.507,1.507,0,0,0,.386,1.459c2.209,1.825,5.195.208,5.956-2.285l-1.446,1.1a72.54,72.54,0,0,0,12.271.768,42.256,42.256,0,0,0,11.356-2.587,30.228,30.228,0,0,1,11.922-1.43c3.984.31,7.94,1.119,11.922,1.512,11.618,1.146,23.541.959,34.926-1.84a72.822,72.822,0,0,0,18.1-7.244c1.977-1.1,3.747-2,4.86-4.09a11.684,11.684,0,0,0,.649-9.665c-1.976-4.925-7.025-7.222-11.9-8.326a44.976,44.976,0,0,0-8.873-1.233c-2.531-.058-5.059.183-7.586.286-1.78.073-3.56.092-5.34.071a1.5,1.5,0,0,0,0,3c5.385.064,10.851-.79,16.215-.115,4.682.589,11.016,1.616,13.89,5.88a8.556,8.556,0,0,1,.627,8.033,7.876,7.876,0,0,1-.872,1.52c.167-.223-.249.276-.329.362a2.8,2.8,0,0,1-.246.228c-.207.176.249-.149-.105.061-.768.454-1.562.871-2.341,1.307a69.774,69.774,0,0,1-16.337,6.723c-10.448,2.759-21.4,3.137-32.13,2.323-8.359-.635-16.672-2.966-25.019-1.063-4.233.965-8.064,2.885-12.455,3.227a67.219,67.219,0,0,1-13.208-.708,1.509,1.509,0,0,0-1.447,1.1,1.3,1.3,0,0,1-.611.779c-.145.1-.473.065-.33.183l.385,1.459c.236-1.215.663-2.375.9-3.59.254-1.313-1.476-2.735-2.507-1.46a3.688,3.688,0,0,1-1.444,1.068c-.235.1-.526.126-.753.233a.72.72,0,0,1-.285.021q.447-.113.6.675a5.137,5.137,0,0,1,.435-.581,3.413,3.413,0,0,1,.667-.362,9.495,9.495,0,0,0,2.138-1.483,1.509,1.509,0,0,0-.661-2.507,2.853,2.853,0,0,1-2.059-1.077v1.515a3.294,3.294,0,0,1,2.5-1.437,1.522,1.522,0,0,0,1.061-2.561,5.72,5.72,0,0,1-.593-6.156h-2.591c4.863,8.337,15.135,12.353,24.488,11.622,1.912-.15,1.928-3.151,0-3Z"/>
    <path class="cls-1" d="M1514.39,1698.806q23.757-7.586,48.059-13.289,6.988-1.637,14.013-3.114c1.888-.4,1.089-3.29-.8-2.893q-24.4,5.14-48.35,12.188-6.884,2.029-13.721,4.215c-1.832.585-1.049,3.482.8,2.893Z"/>
    <path class="cls-1" d="M1567.287,1669.491a115.206,115.206,0,0,0-27.521,14.641c-1.551,1.121-.055,3.724,1.514,2.591a112.456,112.456,0,0,1,26.805-14.339c1.8-.665,1.018-3.565-.8-2.893Z"/>
    <path class="cls-1" d="M1546.787,1686.978c-14.512-6.945-28.928-15.9-45.422-16.751a40.6,40.6,0,0,0-20.633,4.011,29.657,29.657,0,0,0-4.416,2.792c-1.347,1.026-2.973,2.155-3.489,3.854a9.545,9.545,0,0,0,.323,5.635c2.056,6.074,7.851,9.336,14.064,9.4a1.5,1.5,0,0,0,0-3c-4.647-.046-9.142-2.2-10.98-6.675a7.4,7.4,0,0,1-.574-4.333c.4-1.285,2.168-2.324,3.23-3.064a29.6,29.6,0,0,1,4.023-2.349c12.378-5.991,26.87-3.12,39.029,1.854,7.992,3.269,15.55,7.5,23.33,11.218,1.733.83,3.257-1.756,1.515-2.59Z"/>
    <path class="cls-1" d="M1491.779,1681.351a8.666,8.666,0,0,1,2.161-.349,26.893,26.893,0,0,1,3.634.139,76.557,76.557,0,0,1,10.166,1.82c6.881,1.611,13.54,3.979,20.4,5.66a84.926,84.926,0,0,0,9.563,1.912c1.911.24,1.894-2.762,0-3a100.629,100.629,0,0,1-17.142-4.156c-7.415-2.311-15.074-4.454-22.828-5.221-2.449-.242-5.166-.431-7.467.6-1.758.791-.234,3.378,1.514,2.591Z"/>
    <path class="cls-1" d="M1582.2,1700.338c2.867.6,5.605-.1,8.468-.292a13.846,13.846,0,0,1,7.436,1.571,1.515,1.515,0,0,0,2.257-1.3c-.015-.559,0-2.377.658-2.356a1.518,1.518,0,0,0,1.061-2.561.587.587,0,0,1,.16.424c-.035.162-.029.149.017-.037.1-.093.054-.131.124-.263.2-.388.459-.745.672-1.127a3.355,3.355,0,0,0,.518-2.617c-.906-2.9-5.374-1.744-7.244-.7-1.688.938-.177,3.53,1.514,2.59a5.285,5.285,0,0,1,1.528-.583c.492-.1.972-.028,1.461-.086q.418.153.087-.065a.464.464,0,0,1-.241-.491c-.088-.038.165-.113-.033.1-.046.05-.249.456-.371.661-.84,1.4-1.568,2.9-.313,4.318l1.06-2.561c-2.82-.089-3.72,3.072-3.658,5.356l2.257-1.295a16.919,16.919,0,0,0-7.911-2.016c-2.894,0-5.828,1.039-8.709.435-1.884-.395-2.689,2.5-.8,2.893Z"/>
    <path class="cls-1" d="M1476.768,1412.953c-7.319-17.348-17.123-33.468-27.94-48.838-11.351-16.128-23.754-31.483-36.36-46.64-12.946-15.567-26-31.047-39.007-46.564l-39.436-47.043-39.6-47.234-4.809-5.736c-1.242-1.482-3.354.65-2.121,2.121l39.276,46.851,39.276,46.852q19.458,23.212,38.916,46.426c12.591,15.047,25.094,30.19,36.661,46.048,11.1,15.217,21.448,31.1,29.424,48.2q1.468,3.15,2.824,6.35a1.554,1.554,0,0,0,1.846,1.048,1.507,1.507,0,0,0,1.047-1.845Z"/>
    <path class="cls-1" d="M1509.13,1411.936l-11.19-53.637c-3.7-17.715-7.625-35.407-10.593-53.264-1.466-8.816-2.665-17.678-3.4-26.585-.75-9.063-.936-18.152-.91-27.243.052-17.976.6-35.92-1.07-53.85a288.4,288.4,0,0,0-9.619-51.752q-.889-3.146-1.852-6.271c-.565-1.84-3.461-1.055-2.893.8a285.111,285.111,0,0,1,10.773,51.5c2.033,17.929,1.862,35.868,1.7,53.881-.082,9.027-.076,18.063.458,27.079.528,8.923,1.559,17.809,2.883,26.647,2.662,17.769,6.52,35.337,10.188,52.918l11.246,53.9,1.392,6.672c.394,1.888,3.287,1.089,2.893-.8Z"/>
    <path class="cls-1" d="M1544.162,1407.6q-1.512-29.025-.713-58.106.81-29.19,3.95-58.252,3.129-28.97,8.569-57.625,5.416-28.554,13.084-56.619,7.7-28.167,17.643-55.655,1.214-3.352,2.46-6.691c.675-1.812-2.223-2.594-2.893-.8q-10.2,27.361-18.189,55.479-7.976,28.091-13.689,56.758-5.7,28.566-9.121,57.523-3.438,29-4.56,58.207-1.119,29.178.109,58.384.156,3.7.35,7.395c.1,1.921,3.1,1.933,3,0Z"/>
    <path class="cls-1" d="M1586.648,1422.171q11.979-35.205,27.15-69.209,15.024-33.64,33.037-65.836,18.117-32.389,39.105-63.059,20.928-30.579,44.567-59.178,23.565-28.494,49.658-54.765,3.222-3.243,6.482-6.449c1.378-1.356-.744-3.477-2.121-2.121q-26.547,26.127-50.621,54.612-23.989,28.389-45.349,58.87-21.3,30.391-39.8,62.621-18.541,32.3-34.106,66.2-15.5,33.783-27.9,68.88-1.521,4.313-2.992,8.641c-.623,1.831,2.274,2.618,2.893.8Z"/>
    <path class="cls-1" d="M1406.225,1433.318q-32.265-11.169-64.416-22.667t-64.18-23.329q-32.029-11.828-63.936-23.986-32.058-12.216-63.988-24.761-31.995-12.572-63.881-25.42l-7.881-3.161c-1.792-.719-2.57,2.181-.8,2.892q31.941,12.813,63.933,25.5,31.762,12.527,63.654,24.726t63.9,24.071q32.165,11.927,64.453,23.522,32.134,11.539,64.387,22.748,3.975,1.381,7.95,2.758c1.829.633,2.614-2.264.8-2.893Z"/>
    <path class="cls-1" d="M1388.393,1540a514.8,514.8,0,0,1-69.254-5.9c-23.049-3.382-45.928-7.806-68.783-12.291-22.789-4.472-45.572-9.019-68.512-12.663-22.611-3.592-45.4-6.325-68.294-7.109a323.35,323.35,0,0,0-67.649,4.376q-4.2.748-8.381,1.626c-1.889.4-1.089,3.288.8,2.893a307.985,307.985,0,0,1,67.743-6.081c22.915.345,45.755,2.757,68.4,6.169,22.838,3.439,45.511,7.871,68.169,12.322,22.863,4.49,45.73,9.014,68.757,12.6a558.971,558.971,0,0,0,68.444,6.884q4.278.133,8.56.176a1.5,1.5,0,0,0,0-3Z"/>
    <path class="cls-1" d="M1381.3,1618.821c-23.88.293-47.761.581-71.643.435-23.979-.147-47.962-.731-71.9-2.2-23.876-1.461-47.712-3.794-71.355-7.456-23.157-3.587-46.041-8.754-69.238-12.091-22.688-3.263-45.846-4.752-68.543-.745q-4.2.742-8.347,1.735c-1.878.445-1.083,3.339.8,2.892,22.593-5.364,45.978-4.743,68.875-1.857,23.185,2.922,46.007,8.084,69.047,11.9,23.407,3.877,47.018,6.444,70.681,8.094,23.683,1.652,47.421,2.392,71.157,2.65,23.884.26,47.77.032,71.653-.253l8.815-.107a1.5,1.5,0,0,0,0-3Z"/>
    <path class="cls-1" d="M1641.573,1451.657q27.768-23.148,55.912-45.839,28.035-22.6,56.436-44.74,28.473-22.194,57.308-43.915,28.763-21.666,57.876-42.861t58.57-41.908q3.7-2.6,7.4-5.191c1.57-1.1.072-3.7-1.514-2.59q-29.613,20.736-58.885,41.953t-58.186,42.915q-28.844,21.642-57.331,43.754-28.558,22.166-56.751,44.8t-56.007,45.723q-3.477,2.887-6.948,5.78c-1.484,1.238.648,3.35,2.122,2.122Z"/>
    <path class="cls-1" d="M1666,1520.458l77.621-18.792,77.621-18.791,77.621-18.792,77.621-18.792,77.621-18.792,9.654-2.337c1.876-.454,1.081-3.348-.8-2.893l-77.621,18.792-77.621,18.792-77.621,18.791-77.621,18.792-77.621,18.792-9.655,2.337c-1.875.454-1.081,3.348.8,2.893Z"/>
    <path class="cls-1" d="M1666.12,1612.385q42.49-11.552,85.639-20.456,43.124-8.888,86.747-15.075,43.83-6.216,87.994-9.652c29.9-2.33,59.863-3.617,89.826-4.761q45.36-1.731,90.723-3.409l11.3-.424c1.925-.073,1.934-3.073,0-3l-91.252,3.427c-30.2,1.134-60.4,2.287-90.543,4.42q-43.921,3.108-87.591,8.957-43.625,5.841-86.831,14.37-43.41,8.582-86.225,19.875-5.3,1.4-10.58,2.835a1.5,1.5,0,0,0,.8,2.893Z"/>
    <path class="cls-1" d="M935.344,1895.209c13.5-.955,26.647-7.571,38.5-13.6,19.092-9.7,37.325-21.09,55.319-32.667,43.507-27.992,85.63-58.067,128.9-86.424,18.919-12.4,38.034-24.605,57.9-35.454,13.464-7.354,28.022-15.345,43.312-18.041,10.857-1.914,22.594-1.048,33.566-1,16.475.076,32.948.5,49.412,1.065,31.7,1.087,63.429,3.769,95.159,3.494,25.178-.219,50.093-3.58,75.133-5.821,42-3.76,84.3-6.45,126.456-7.419,24.625-.566,49.568-1.274,74.092,1.578,16.254,1.89,32.321,4.818,48.639,6.276,16.55,1.478,33.157,2.31,49.758,2.943a29.185,29.185,0,0,1,10.688,2.3c11.073,4.439,21.665,10.256,32.18,15.852,36.133,19.227,71.577,39.761,107.109,60.067,39.7,22.687,79.343,45.5,119.458,67.451,15.727,8.606,31.521,17.117,47.587,25.075,9.848,4.878,19.959,10.136,30.542,13.262,2.358.7,4.968,1.454,7.442,1,1.9-.35,1.093-3.242-.8-2.892-6.275,1.158-16.131-4.769-21.633-7.262-14.233-6.449-28.091-13.738-41.873-21.088-38.8-20.693-76.969-42.58-115.153-64.386-37.83-21.6-75.547-43.427-113.742-64.383-13-7.131-26.038-14.247-39.4-20.681-4.067-1.959-8.174-3.9-12.4-5.485-4.969-1.86-9.2-1.79-14.653-2.014-25.025-1.027-50.031-2.6-74.812-6.335a375.4,375.4,0,0,0-47.728-4.515c-71.138-1.616-142.206,5.288-212.951,11.732-28.991,2.641-57.894,1.57-86.922.058-31.053-1.618-62.167-2.786-93.264-2.879-10.537-.032-21.658-.732-32.1,1.008a87.71,87.71,0,0,0-18.816,5.855c-17.537,7.231-34.066,16.929-50.23,26.783-43.543,26.545-85.13,56.2-127.437,84.639-19.947,13.406-40,26.686-60.6,39.08-15.811,9.514-32.082,19.079-49.438,25.524-5.521,2.051-11.293,3.877-17.2,4.3-1.915.135-1.93,3.137,0,3Z"/>
    <path class="cls-1" d="M1908.12,1643.736c22.587,3.095,45.207,6.195,67.983,7.5,11.392.654,22.815.856,34.218.372a328.453,328.453,0,0,0,32.9-3.282c11.3-1.627,22.551-3.53,33.874-4.964,11.277-1.429,22.6-2.5,33.938-3.293,22.473-1.563,45.011-2,67.534-1.839,25.523.181,51.032,1.126,76.536,2.075,1.93.072,1.927-2.928,0-3-45.269-1.685-90.635-3.368-135.9-.755-22.391,1.292-44.554,3.978-66.713,7.376-11.052,1.694-22.122,3.325-33.278,4.162a310.621,310.621,0,0,1-34.21.563c-25.5-.9-50.826-4.349-76.084-7.81-1.888-.258-2.7,2.632-.8,2.893Z"/>
    <path class="cls-1" d="M1860.884,1403.747l63.585-26.469,63.4-26.395q31.633-13.168,63.267-26.337c19.825-8.254,39.645-16.534,59.171-25.48a633.984,633.984,0,0,0,57.614-29.638q3.414-2.009,6.794-4.075c1.645-1.005.14-3.6-1.514-2.59a588.907,588.907,0,0,1-56.686,30.131c-19.558,9.188-39.461,17.617-59.4,25.936q-31.264,13.044-62.549,26.041l-63.116,26.275-63.56,26.459-7.807,3.25c-1.756.731-.985,3.635.8,2.892Z"/>
    <path class="cls-1" d="M1622.745,1209.36q13.287-27.511,26.145-55.225t25.279-55.627q12.364-27.785,24.3-55.759,11.953-28.024,23.474-56.231,11.55-28.284,22.657-56.745,1.364-3.494,2.72-6.989c.7-1.8-2.2-2.581-2.893-.8q-11,28.352-22.444,56.531-11.473,28.254-23.386,56.328-11.883,27.995-24.2,55.8t-25.064,55.419q-12.747,27.612-25.922,55.023-1.625,3.38-3.255,6.756c-.836,1.731,1.75,3.254,2.59,1.514Z"/>
    <path class="cls-1" d="M1411,1200.622a379.652,379.652,0,0,0-38.907-47.863q-10.7-11.157-22.284-21.409c-7.756-6.86-15.8-13.432-22.985-20.906-11.661-12.128-19.576-26.858-25.987-42.29-6.218-14.967-11.234-30.413-17.805-45.237-6.3-14.215-14.268-28-25.893-38.545q-2.159-1.959-4.464-3.748c-1.505-1.173-3.643.935-2.121,2.122,12.413,9.677,21.054,22.895,27.732,36.979,6.872,14.491,11.865,29.772,17.8,44.65,5.959,14.946,12.88,29.7,23.22,42.17,6.572,7.922,14.351,14.715,22.1,21.443,7.8,6.769,15.455,13.676,22.766,20.974a373.829,373.829,0,0,1,39.869,46.938q2.217,3.1,4.37,6.236c1.086,1.582,3.687.083,2.59-1.514Z"/>
    <path class="cls-1" d="M1149.642,1436.969l-55.415-14.148-55.618-14.2c-18.25-4.659-36.472-9.46-54.815-13.741a481.477,481.477,0,0,0-54.786-9.963,245.134,245.134,0,0,0-55.194-.543q-3.447.389-6.88.894c-1.9.276-1.094,3.167.8,2.892a232.207,232.207,0,0,1,55.056-.891,431.7,431.7,0,0,1,54.586,9.212c18.238,4.118,36.327,8.877,54.441,13.5l55.072,14.06,55.176,14.087,6.783,1.731c1.871.478,2.67-2.414.8-2.892Z"/>
    <path class="cls-1" d="M1095.214,1649.759c-17.367,1.614-34.732-.585-51.854-3.413-17.165-2.836-34.3-6.27-51.717-7.17-17.994-.929-35.977,1.155-53.686,4.205-18.038,3.107-35.95,6.99-53.89,10.612l-54.4,10.984-6.934,1.4c-1.891.382-1.09,3.274.8,2.893l54.137-10.93c17.992-3.633,35.959-7.445,54.007-10.8,17.707-3.287,35.646-5.844,53.7-5.576,17.477.258,34.7,3.449,51.874,6.376,17.031,2.9,34.276,5.607,51.609,4.853q3.186-.138,6.362-.438c1.906-.177,1.924-3.179,0-3Z"/>
    <path class="cls-1" d="M2027.087,1503.688l67.122-14.976,67.122-14.975,67.458-15.051,67.122-14.976,67.122-14.975c2.765-.617,5.552-1.174,8.3-1.869,1.87-.474,1.078-3.368-.8-2.893-11.067,2.8-22.325,5-33.468,7.485l-33.561,7.488-67.122,14.975-67.458,15.051-67.122,14.976-67.122,14.975-8.39,1.872c-1.884.421-1.087,3.314.8,2.893Z"/>
    <path class="cls-1" d="M1837.579,1162.633c20.371-10.287,36.229-27.194,51.153-44.063,15.793-17.853,31.234-36.014,46.677-54.169,15.417-18.125,30.832-36.254,46.575-54.1,15.8-17.911,31.938-35.537,48.717-52.541,16.642-16.864,33.922-33.115,52.062-48.363q3.363-2.827,6.765-5.607c1.5-1.223-.638-3.334-2.121-2.122-18.352,15-35.832,31.047-52.638,47.758-16.823,16.729-32.979,34.117-48.763,51.825-15.83,17.76-31.29,35.846-46.708,53.963s-30.8,36.27-46.473,54.168c-14.886,17-29.992,34.707-49.48,46.609q-3.557,2.174-7.281,4.049c-1.723.871-.206,3.46,1.515,2.591Z"/>
    <path class="cls-1" d="M1516.825,1137.745q-3.88-73.084-3.612-146.31.276-72.816,4.676-145.537,2.492-41.163,6.3-82.231c.178-1.921-2.823-1.909-3,0q-6.756,72.876-9.371,146.055-2.59,72.77-1.058,145.608.869,41.229,3.061,82.415c.1,1.921,3.1,1.933,3,0Z"/>
    <path class="cls-1" d="M1209.329,1264.728q-28.264-34.848-59.438-67.192-30.936-32.082-64.533-61.446c-23.7-20.714-48.531-40.031-73.319-59.415l-38.481-30.091c-11.069-8.655-22.158-17.311-33.82-25.163a193.8,193.8,0,0,0-36.7-19.906,124.892,124.892,0,0,0-19.8-6.05c-2.446-.523-4.582-1.069-6.6.757-1.124,1.015-2.448,2.953-2.066,4.565.475,2.013,2.522,1.466,3.71.519,1.509-1.2-.626-3.313-2.122-2.121-.525.419,1.174,1.246,1.374,1.02a7.461,7.461,0,0,0,.378-.845,2.956,2.956,0,0,1,1.675-1.467c1.108-.244,2.874.463,3.956.706q2.467.553,4.91,1.213a130.828,130.828,0,0,1,18.852,6.716,211.478,211.478,0,0,1,34.693,20.058c11.353,7.884,22.2,16.455,33.089,24.966l36.66,28.668c23.548,18.414,47.123,36.783,69.684,56.408q32.262,28.063,62.156,58.706,29.754,30.5,56.952,63.362,3.36,4.061,6.678,8.154c1.217,1.5,3.328-.634,2.122-2.122Z"/>
    <path class="cls-1" d="M1037.166,1545.459q-60.555,4.911-121.368,5.022-60.446.1-120.774-4.565-33.786-2.616-67.433-6.727c-1.912-.233-1.895,2.769,0,3q60.3,7.359,121.064,9.932,60.393,2.548,120.861.329,33.864-1.245,67.65-3.991c1.911-.155,1.927-3.156,0-3Z"/>
    <path class="cls-1" d="M2268.816,1550.9q25.423-.921,50.8-2.756t50.672-4.6q25.241-2.754,50.371-6.415,25.3-3.684,50.455-8.288,25.026-4.581,49.874-10.069,3.073-.679,6.146-1.372c1.882-.425,1.086-3.318-.8-2.893q-24.7,5.568-49.58,10.247-25,4.7-50.167,8.486-25.083,3.775-50.293,6.635-25.154,2.854-50.4,4.8-25.367,1.955-50.792,2.985-3.146.128-6.292.241c-1.925.069-1.935,3.07,0,3Z"/>
    <path class="cls-1" d="M2166.833,1389.5q32.268-7.77,64.2-16.867,31.776-9.058,63.158-19.424,31.515-10.408,62.582-22.118,30.96-11.67,61.42-24.61,30.412-12.914,60.273-27.078,3.783-1.794,7.555-3.608c1.74-.836.22-3.423-1.514-2.59q-29.78,14.312-60.131,27.393-30.439,13.114-61.412,24.947-30.862,11.8-62.2,22.315t-63.062,19.731q-31.587,9.171-63.533,17.037-4.065,1-8.135,1.98c-1.876.451-1.082,3.345.8,2.892Z"/>
    <path class="cls-1" d="M2023.754,1160.686c21.143-9.536,41.774-20.173,61.939-31.628s39.892-23.731,59.26-36.512c19.418-12.813,38.491-26.142,57.379-39.723s37.6-27.417,56.3-41.26l60.68-44.923,7.5-5.556c1.534-1.136.04-3.741-1.515-2.59l-60.755,44.979c-18.864,13.966-37.714,27.952-56.728,41.713-18.849,13.643-37.862,27.064-57.2,40-19.292,12.908-38.912,25.338-58.985,37-20.047,11.646-40.548,22.525-61.564,32.322q-3.9,1.816-7.822,3.585c-1.757.792-.234,3.379,1.514,2.59Z"/>
    <path class="cls-1" d="M1840.433,973.172q17.875-29.079,36.174-57.894t37.023-57.355q18.8-28.658,38.023-57.035,19.143-28.26,38.7-56.236t39.526-55.66q2.466-3.417,4.937-6.831c1.133-1.566-1.468-3.065-2.591-1.514q-20.016,27.648-39.627,55.588T1953.8,792.4q-19.274,28.341-38.127,56.966-18.774,28.506-37.128,57.287t-36.279,57.829q-2.212,3.587-4.419,7.176c-1.014,1.649,1.58,3.158,2.59,1.514Z"/>
    <path class="cls-1" d="M1609.676,968.226l13.05-66.7,13.049-66.7q6.494-33.187,12.987-66.376c4.091-20.874,8.262-41.744,13.413-62.388a457.578,457.578,0,0,1,19.188-60.609q1.548-3.832,3.19-7.625c.758-1.754-1.825-3.284-2.591-1.515a425.794,425.794,0,0,0-20.448,60.262c-5.469,20.667-9.822,41.606-13.971,62.571q-6.541,33.057-12.95,66.14l-13.05,66.7L1608.43,959.01l-1.647,8.418c-.369,1.886,2.522,2.694,2.893.8Z"/>
    <path class="cls-1" d="M1393.219,974.628c-12.812-20.2-24.521-41.082-35.257-62.454-10.765-21.431-20.566-43.339-29.6-65.553-9.078-22.319-17.4-44.941-25.194-67.737-7.788-22.768-15.056-45.709-22.044-68.734s-13.688-46.108-20.351-69.215q-1.236-4.285-2.47-8.572a1.5,1.5,0,0,0-2.893.8c6.683,23.2,13.376,46.394,20.323,69.514,6.955,23.146,14.164,46.218,21.869,69.126,7.684,22.845,15.862,45.529,24.773,67.927,8.85,22.244,18.414,44.212,28.92,65.727,10.533,21.573,22.013,42.69,34.608,63.131q2.337,3.793,4.726,7.556c1.031,1.626,3.629.122,2.59-1.514Z"/>
    <path class="cls-1" d="M1168.486,1024.764c-8.2-18.119-22.677-32.142-37.527-44.919-15.1-12.991-31.178-25.254-43.52-41.056-7.543-9.658-13.5-20.442-19.367-31.163-5.8-10.593-11.709-21.081-18.4-31.143-13.08-19.667-28.233-37.884-44.324-55.146-16.308-17.5-33.594-34.044-50.978-50.46q-3.149-2.974-6.3-5.945c-1.4-1.324-3.53.794-2.121,2.121,17.287,16.295,34.571,32.614,51.01,49.773,16.424,17.141,32.029,35.141,45.648,54.611a338.964,338.964,0,0,1,18.826,30.315c5.876,10.627,11.487,21.435,18.312,31.5a147.3,147.3,0,0,0,20.646,24.011c7.251,6.891,14.958,13.277,22.6,19.726,14.88,12.558,30.08,25.672,39.695,42.9q1.743,3.125,3.215,6.389c.8,1.756,3.381.233,2.59-1.514Z"/>
    <path class="cls-1" d="M925.612,1231.266q-30.528-12.771-60.285-27.291-29.666-14.5-58.4-30.8-28.7-16.31-56.278-34.484-13.689-9.036-27.06-18.539c-8.3-5.88-16.571-11.812-25.092-17.371-16.721-10.909-34.8-20.641-54.621-24.318-2.433-.451-4.883-.8-7.341-1.079-1.916-.216-1.9,2.786,0,3,20.079,2.256,38.538,11.211,55.474,21.807,17.762,11.113,34.424,23.912,51.828,35.567q27.315,18.294,55.823,34.714,28.484,16.432,57.966,31.046,29.458,14.628,59.745,27.5,3.717,1.582,7.444,3.141c1.778.744,2.555-2.158.8-2.893Z"/>
    <path class="cls-1" d="M839.137,1446.859q-29.262-8.649-59.02-15.48-29.74-6.819-59.868-11.779c-19.9-3.277-39.9-5.838-59.949-8.069-19.926-2.219-39.88-4.231-59.738-7.012a481.85,481.85,0,0,1-58.893-11.534q-3.646-.984-7.268-2.049c-1.857-.544-2.65,2.35-.8,2.893a442.165,442.165,0,0,0,58.687,12.5c19.8,2.982,39.714,5.1,59.614,7.279,20.14,2.2,40.252,4.577,60.27,7.718q30,4.707,59.668,11.265,29.793,6.587,59.139,15.018,3.684,1.057,7.359,2.145c1.855.549,2.648-2.346.8-2.892Z"/>
    <path class="cls-1" d="M758.442,1619.558c-18.091.5-36.034-2.155-53.795-5.319-17.5-3.117-34.931-6.52-52.627-8.364a389.2,389.2,0,0,0-52.413-1.9,395.1,395.1,0,0,0-51.857,5.064,387.827,387.827,0,0,0-51.059,11.986q-3.106.955-6.195,1.964c-1.828.6-1.046,3.493.8,2.893A389.5,389.5,0,0,1,645.8,1608.278c17.739,1.558,35.205,4.7,52.707,7.89,17.586,3.2,35.324,6.226,53.245,6.444q3.345.04,6.69-.054c1.927-.053,1.935-3.053,0-3Z"/>
    <path class="cls-1" d="M2460.3,1398.4l134.347-27.167,133.892-27.075,75.357-15.238c1.891-.383,1.091-3.275-.8-2.893l-134.565,27.211-133.892,27.075-75.139,15.194c-1.891.383-1.091,3.275.8,2.893Z"/>
    <path class="cls-1" d="M2274.67,1210.889c28.039-13.978,54.5-30.814,81.548-46.571q39.428-22.973,80.024-43.857,40.577-20.877,82.207-39.615,41.615-18.731,84.172-35.26,42.537-16.521,85.9-30.8,5.418-1.783,10.847-3.532c1.831-.59,1.048-3.488-.8-2.893q-43.62,14.057-86.466,30.379-42.454,16.182-84.031,34.551-41.92,18.519-82.833,39.218-40.717,20.6-80.32,43.314c-27.157,15.577-53.593,32.465-81.284,47.1q-5.208,2.752-10.48,5.38c-1.728.861-.21,3.45,1.514,2.59Z"/>
    <path class="cls-1" d="M2169.9,820.949q22.943-25.753,48.178-49.332t52.586-44.739c19.162-14.831,39.031-28.723,59.035-42.386,20.352-13.9,40.79-27.68,61.192-41.509l61.992-42.017,7.688-5.211c1.59-1.077.09-3.677-1.514-2.59l-61.991,42.016q-30.945,20.974-61.885,41.954c-20.064,13.64-40.039,27.431-59.389,42.073q-27.771,21.012-53.549,44.485-25.477,23.247-48.739,48.777-2.882,3.163-5.726,6.358c-1.28,1.437.834,3.566,2.122,2.121Z"/>
    <path class="cls-1" d="M1783.406,787.546c8.8-27.559,17.413-55.184,26.47-82.659,8.575-26.013,18.12-51.66,30.555-76.1,11.051-21.72,23.745-42.546,36.448-63.326s25.488-41.586,36.67-63.257c11-21.318,20.451-43.56,26.412-66.843q1.106-4.312,2.047-8.665c.409-1.882-2.482-2.686-2.893-.8-5.143,23.649-13.972,46.276-24.687,67.927-10.8,21.824-23.39,42.7-36.071,63.464-12.7,20.8-25.552,41.538-36.944,63.1-12.531,23.715-22.512,48.493-31.14,73.869-9.271,27.271-17.736,54.828-26.495,82.268l-3.264,10.228c-.589,1.843,2.307,2.632,2.892.8Z"/>
    <path class="cls-1" d="M1501.689,647.64l3.528-136.566,1.756-67.936c.579-22.41,1.086-44.827,2.172-67.219,1.221-25.159,3.195-50.3,6.89-75.23.28-1.888-2.61-2.7-2.893-.8-6.588,44.437-7.778,89.4-8.937,134.234l-3.528,136.566-1.988,76.948c-.05,1.931,2.95,1.93,3,0Z"/>
    <path class="cls-1" d="M1168.615,799.019l-57.087-72.255c-8.955-11.334-17.949-22.655-26.175-34.537a246.9,246.9,0,0,1-21.429-37.4c-6.075-13.2-11.225-26.805-16.869-40.193q-7.877-18.68-16.875-36.857a667.308,667.308,0,0,0-89.152-135.509q-3.325-3.918-6.712-7.785c-1.274-1.456-3.389.673-2.122,2.121a664.308,664.308,0,0,1,91.5,134.94q9.221,18.015,17.329,36.571c5.743,13.147,10.868,26.551,16.541,39.728a257.079,257.079,0,0,0,20.133,38.338c7.722,11.92,16.368,23.207,25.137,34.368q28.143,35.819,56.472,71.489l7.192,9.1c1.2,1.514,3.306-.621,2.122-2.121Z"/>
    <path class="cls-1" d="M780.64,897.405c-15.724-20.014-34.15-37.7-53.732-53.9-19.716-16.312-40.559-31.19-61.41-46-21.185-15.049-42.426-30.058-62.6-46.464a854.641,854.641,0,0,1-63.349-57.628c-20.206-20.112-39.71-40.912-59.127-61.782q-3.6-3.872-7.2-7.746c-1.317-1.417-3.435.708-2.121,2.121,19.472,20.949,38.951,41.9,59.064,62.239,20.081,20.3,40.8,40.006,62.689,58.369,20.117,16.88,41.349,32.311,62.739,47.521,20.939,14.89,42.005,29.641,62.074,45.7,19.766,15.818,38.589,32.951,54.9,52.362q3.037,3.615,5.952,7.33c1.192,1.517,3.3-.619,2.121-2.121Z"/>
    <path class="cls-1" d="M666.886,1277.4c-.945,4.46-7.119,3.392-10.312,2.466a61.082,61.082,0,0,1-7.808-3.291q-4.563-2.044-9.15-4.037-18.374-7.977-37.105-15.1-37.868-14.382-76.985-25.128-38.9-10.686-78.69-17.668c-13.063-2.29-26.178-4.249-39.33-5.953-12.081-1.565-24.26-3.094-35.956-6.629a79.988,79.988,0,0,1-16.332-6.829,77.55,77.55,0,0,1-13.583-10.137c-7.5-6.755-14.975-14.665-24.863-17.794a27.714,27.714,0,0,0-7.244-1.234c-1.93-.08-1.927,2.921,0,3,10.886.446,19.251,8.33,26.845,15.287a117.346,117.346,0,0,0,12.612,10.523,73.286,73.286,0,0,0,15.652,8.008c11.466,4.33,23.671,6.25,35.765,7.875,13.266,1.782,26.52,3.542,39.722,5.761q40.44,6.8,80.1,17.459,39.6,10.646,78.059,25.057,19.327,7.246,38.289,15.426,4.745,2.049,9.463,4.155c2.748,1.227,5.46,2.634,8.289,3.665,3.721,1.355,8.8,2.293,12.428.185a6.35,6.35,0,0,0,3.026-4.273c.4-1.884-2.492-2.689-2.892-.8Z"/>
    <path class="cls-1" d="M550.962,1530.158q-60.822-6.757-122.036-8.9-61.158-2.129-122.36.389-34.278,1.41-68.473,4.283c-1.91.161-1.927,3.162,0,3q60.982-5.112,122.232-5.6,61.193-.476,122.3,3.693,34.227,2.337,68.333,6.132c1.916.213,1.9-2.789,0-3Z"/>
    <path class="cls-1" d="M581.451,1683.082l-139.669,15.193c-45.883,4.991-91.853,9.515-137.583,15.79-25.593,3.511-51.1,7.676-76.38,13.025-1.888.4-1.089,3.292.8,2.893,45.036-9.531,90.748-15.256,136.465-20.343,46.143-5.135,92.309-10.063,138.464-15.083l77.906-8.475c1.9-.206,1.92-3.209,0-3Z"/>
    <path class="cls-1" d="M2262.014,1717.671q91.234-2.737,182.525-.292,90.781,2.445,181.327,10.036,50.991,4.277,101.827,10.182c1.914.222,1.9-2.78,0-3q-90.668-10.521-181.834-15.882-90.658-5.319-181.521-5.491-51.17-.094-102.324,1.447c-1.927.058-1.935,3.058,0,3Z"/>
    <path class="cls-1" d="M2687.228,1530.955a562.718,562.718,0,0,0,152.382-19.436q21-5.678,41.514-12.983c1.806-.643,1.027-3.543-.8-2.893a558.581,558.581,0,0,1-150.091,31.111q-21.471,1.431-43.007,1.2a1.5,1.5,0,0,0,0,3Z"/>
    <path class="cls-1" d="M2588.892,1227.22q36.279-9.681,72.3-20.3,35.845-10.574,71.409-22.077,35.724-11.556,71.139-24.043t70.487-25.893q34.909-13.345,69.463-27.6,4.359-1.8,8.712-3.61c1.756-.731.986-3.635-.8-2.892q-34.665,14.425-69.7,27.949-34.867,13.455-70.076,26-35.369,12.6-71.06,24.276t-71.67,22.411q-35.812,10.688-71.895,20.438-4.552,1.23-9.108,2.446a1.5,1.5,0,0,0,.8,2.893Z"/>
    <path class="cls-1" d="M2472.169,860.4q47.838-24.008,94.628-50.031,46.59-25.921,92.049-53.808t89.68-57.67q44.222-29.781,87.151-61.425,42.732-31.5,84.11-64.787,5.214-4.194,10.4-8.416c1.5-1.218-.636-3.329-2.122-2.121q-41.543,33.779-84.5,65.764-42.6,31.71-86.517,61.6-44.078,30-89.4,58.1-45.132,27.989-91.423,54.048T2482.6,851.775q-5.964,3.032-11.944,6.031c-1.726.866-.209,3.455,1.514,2.591Z"/>
    <path class="cls-1" d="M2138.4,575.139q36.4-38.855,73.478-77.073,36.816-37.947,74.286-75.251,37.6-37.434,75.85-74.209t77.13-72.877q38.881-36.1,78.387-71.523,4.852-4.35,9.712-8.689c1.444-1.289-.684-3.4-2.121-2.122q-39.717,35.461-78.814,71.608-38.819,35.9-77.012,72.459-38.325,36.692-76.008,74.047t-74.707,75.359q-37.024,38-73.383,76.649-4.465,4.744-8.92,9.5c-1.319,1.408.8,3.534,2.122,2.122Z"/>
    <path class="cls-1" d="M1689.357,488.433a541.51,541.51,0,0,1,12.766-62.083c5.385-20.509,11.669-40.77,18.227-60.931,6.574-20.208,13.429-40.325,19.967-60.545,6.516-20.15,12.722-40.411,17.99-60.927a524.7,524.7,0,0,0,12.275-61.916q.513-3.9.954-7.806c.217-1.915-2.785-1.9-3,0a493.249,493.249,0,0,1-11.414,62.129c-5.028,20.466-11.054,40.673-17.457,60.747-6.457,20.244-13.3,40.363-19.929,60.55-6.589,20.064-12.973,40.2-18.542,60.577a573.728,573.728,0,0,0-13.571,61.627q-.614,3.885-1.159,7.781c-.266,1.888,2.625,2.7,2.893.8Z"/>
    <path class="cls-1" d="M1242.042,462.765l-19.724-55.692-19.818-55.96-19.724-55.691q-9.866-27.86-19.73-55.719c-6.239-17.7-12.271-35.609-15.349-54.178q-.586-3.542-1.017-7.105c-.228-1.893-3.231-1.916-3,0,2.263,18.749,7.742,36.847,13.878,54.645,6.382,18.512,13.039,36.932,19.576,55.389l19.913,56.228,19.818,55.959,19.818,55.96,2.466,6.961c.64,1.807,3.54,1.029,2.893-.8Z"/>
    <path class="cls-1" d="M810.256,598.022c-26.272-18.092-52.549-36.212-77.857-55.645-25.256-19.393-49.557-40.157-71.511-63.26-22.789-23.982-41.969-50.834-61.562-77.4-9.8-13.284-19.767-26.454-30.443-39.05-10.6-12.5-21.805-24.465-33.409-36.028-23.338-23.257-48.237-44.868-73.27-66.264q-4.615-3.945-9.237-7.885c-1.461-1.246-3.593.866-2.121,2.122,25.142,21.446,50.3,42.916,74.081,65.884,11.784,11.382,23.222,23.129,34.1,35.381,11.126,12.532,21.522,25.659,31.56,39.073,19.823,26.493,38.61,53.83,60.859,78.4,21.4,23.636,45.342,44.843,70.362,64.562,25,19.7,51.073,37.968,77.26,56.037q4.835,3.334,9.673,6.665c1.594,1.1,3.1-1.5,1.514-2.59Z"/>
    <path class="cls-1" d="M512.3,968.231c-25.52-17.139-52.035-32.738-79-47.482C406.23,905.95,378.711,892,351.17,878.106c-27.408-13.823-54.852-27.585-81.919-42.068-26.973-14.432-53.583-29.587-79.276-46.207a641.1,641.1,0,0,1-73.49-54.82q-4.284-3.738-8.488-7.566c-1.426-1.3-3.553.819-2.121,2.122a618.211,618.211,0,0,0,72.309,56.093c25.5,17.068,52.006,32.569,78.941,47.241,27.039,14.729,54.517,28.629,82.007,42.49,27.55,13.891,55.125,27.744,82.308,42.345s53.986,29.957,79.848,46.8q4.77,3.108,9.5,6.282c1.607,1.08,3.11-1.518,1.514-2.59Z"/>
    <path class="cls-1" d="M361.21,1363.061c-21.033-7.1-43.534-6.574-65.4-5.079-23.706,1.62-47.395,3.531-71.09,5.307l-72.155,5.409-71.8,5.381-71.8,5.382L0,1380.134c-1.913.143-1.929,3.144,0,3l143.593-10.764,142.875-10.709c24.64-1.846,50.127-3.751,73.944,4.293,1.833.619,2.62-2.277.8-2.893Z"/>
  </g>
</svg>
