<svg id="Capa_1" data-name="Capa 1" xmlns="http://www.w3.org/2000/svg" viewBox="0 0 197.461 112.431">
  <defs>
    <style>
      .cls-1, .cls-2 {
        isolation: isolate;
      }

      .cls-2 {
        font-size: 25px;
        font-family: Lato-HeavyItalic, Lato;
        font-weight: 800;
        font-style: italic;
      }

      .cls-2, .cls-5 {
        fill: #fff;
      }

      .cls-3 {
        letter-spacing: -0.046em;
      }

      .cls-4 {
        letter-spacing: -0.027em;
      }
    </style>
  </defs>
  <title>draw</title>
  <g>
    <g id="_.draw" data-name=" .draw" class="cls-1">
      <text class="cls-2" transform="translate(117.799 105.193)">.DR<tspan class="cls-3" x="38.849" y="0">A</tspan><tspan class="cls-4" x="54.137" y="0">W</tspan></text>
    </g>
    <g>
      <path class="cls-5" d="M-200.6,352.318a2.187,2.187,0,0,1-.7-.113,2.256,2.256,0,0,1-1.314-1.178,1.234,1.234,0,0,1-.142-.662,1.989,1.989,0,0,1,1.76-1.614,18.683,18.683,0,0,1,2.484-1.092c.227-.087.455-.174.682-.264.09-.035.178-.073.267-.111.168-.071.342-.145.532-.211.3-.1.6-.185.9-.266.147-.039.294-.073.442-.106.106-.024.213-.048.319-.075l.3-.076c.39-.1.758-.191,1.126-.3.351-.1.7-.208,1.05-.314.539-.164,1.1-.333,1.657-.484a19.005,19.005,0,0,1,2-.428c1.267-.195,2.616-.4,3.96-.538a6.225,6.225,0,0,1,2.964.41,3.423,3.423,0,0,1,1.777,1.938,1.163,1.163,0,0,1,.088.771l-.007.036a1.1,1.1,0,0,1-.706.909,1.014,1.014,0,0,1-.868-.1.982.982,0,0,1-.437-.621.844.844,0,0,0-.5-.3,8.48,8.48,0,0,0-2.715-.047,11.347,11.347,0,0,0-1.463.281,14.383,14.383,0,0,1-1.522.3,7.758,7.758,0,0,0-1.422.38c-.237.08-.474.158-.712.228l-.434.126c-.417.12-.812.234-1.2.367-.583.2-1.176.439-1.75.668-1.474.59-2.8,1.125-4.061,1.642-.46.188-.873.361-1.258.558A2.429,2.429,0,0,1-200.6,352.318Z" transform="translate(262.258 -299.752)"/>
      <path class="cls-5" d="M-188.051,360.848a20.349,20.349,0,0,0-1.938,1.568c-.975,1-1.885,2.059-2.782,3.128-.52.62-.954,1.311-1.441,1.959-1.088,1.447-2.216,2.866-3.27,4.337-1.132,1.58-2.172,3.226-3.3,4.806-.536.749-1.231,1.383-1.778,2.126-.4.542-.556,1.314-1.041,1.727a1.892,1.892,0,0,1-1.656.348c-1.245-.634-1.471-1.63-.735-2.937a30.6,30.6,0,0,0,1.4-3.429c.572-1.389,1.164-2.769,1.745-4.154.054-.13.086-.269.128-.4a1.887,1.887,0,0,0-.689.132,36.451,36.451,0,0,0-3.56,2.519,11.756,11.756,0,0,0-1.765,2.306c-.723,1.046-1.358,2.156-2.115,3.176-1.163,1.568-2.412,3.072-3.6,4.621-1.42,1.853-3.014,2.43-5.446.969a11.556,11.556,0,0,1-3.807-3.129c-.655-1-.437-2.629-.425-3.977a10.95,10.95,0,0,1,.51-2.93c.308-1.052.816-2.043,1.173-3.083a2.262,2.262,0,0,0-.013-1.081,1.354,1.354,0,0,0-.7-.033,28.252,28.252,0,0,0-3.285.832,2.852,2.852,0,0,0-1.156,1.082c-.822,1.161-1.62,2.344-2.348,3.565-.5.839-.843,1.769-1.3,2.636-.724,1.372-1.532,2.7-2.21,4.1a21.241,21.241,0,0,0-.921,2.611c-.371,1.119-.763,2.234-1.079,3.369a19.646,19.646,0,0,0-.433,2.281,40.258,40.258,0,0,1-.739,4.743c-.348,1.243-1.334.487-1.659-.012-1.456-2.24-2.119-4.623-1.056-7.3.576-1.448.882-3,1.333-4.5.351-1.169.738-2.327,1.109-3.49l.416-.294-.215-.161-.192.463a16.313,16.313,0,0,0-1.478,1.25c-.638.675-1.177,1.444-1.805,2.13-1.611,1.763-3.164,3.591-4.9,5.224-1.5,1.413-3.265,2.543-4.834,3.89a6.008,6.008,0,0,1-6.021,1.036,9.341,9.341,0,0,1-3.057-2.07c-2.181-1.893-2.179-4.6-2.239-7.137a20.77,20.77,0,0,1,.827-5.206,20.844,20.844,0,0,1,1.4-3.864c.744-1.606,1.6-3.166,2.485-4.7s1.793-3.032,2.807-4.465,2.171-2.806,3.3-4.177c.874-1.066,1.758-2.128,2.71-3.123.932-.974,1.959-1.858,2.939-2.787.922-.876,1.783-1.825,2.766-2.624a39.357,39.357,0,0,1,4.6-3.421,47.475,47.475,0,0,1,7.3-3.732,6.133,6.133,0,0,1,3.9.41,8.35,8.35,0,0,1,3.169,2.26,3.443,3.443,0,0,1,.7,2.623,31.471,31.471,0,0,1-1.771,5.3,13.4,13.4,0,0,1-1.5,2.272,29.794,29.794,0,0,0-2.106,3.167c-.825,1.636-3.371,3.563-4.941,3.435-.324-.026-.9-.409-.881-.578a3.668,3.668,0,0,1,.547-1.77c.951-1.272,2.085-2.406,3.042-3.674a29.8,29.8,0,0,0,2.454-3.73,23.9,23.9,0,0,0,1.537-3.723,6.815,6.815,0,0,0,.29-2.2c0-.166-.678-.542-.914-.458a29.065,29.065,0,0,0-3.761,1.589,29.579,29.579,0,0,0-3.361,2.155,29.69,29.69,0,0,0-2.561,2.1c-1.48,1.331-2.994,2.635-4.368,4.07-1.763,1.841-3.436,3.772-5.082,5.719-.781.925-1.4,1.987-2.111,2.973-.9,1.256-1.871,2.47-2.725,3.758a21.751,21.751,0,0,0-1.243,2.44c-.529,1.072-1.082,2.132-1.568,3.223a33.13,33.13,0,0,0-1.55,3.793c-.678,2.225-1.242,4.487-1.8,6.746-.358,1.453,1.058,3.814,2.013,3.373a34.978,34.978,0,0,0,4.836-2.865,34.543,34.543,0,0,0,3.339-2.7c.763-.669,1.431-1.446,2.163-2.154.705-.683,1.45-1.327,2.154-2.012.682-.663,1.322-1.369,2-2.033,1.142-1.116,2.326-2.191,3.435-3.338.243-.251.246-.735.359-1.112a5.2,5.2,0,0,0-1.435.245c-1.5.727-2.937,1.574-4.438,2.294-.732.351-1.68.893-2.295.678a3.671,3.671,0,0,1-1.63-1.94c-.123-.265.488-1.029.921-1.362a26.071,26.071,0,0,1,3.61-2.457c1.589-.842,3.294-1.465,4.942-2.2a46.63,46.63,0,0,1,6-2.624,26.36,26.36,0,0,1,6.116-.712c.907-.036,1.841.639,2.748.6a2.691,2.691,0,0,0,1.665-1.187c.688-.97,1.136-2.107,1.761-3.127.7-1.136,1.451-2.238,2.24-3.312.235-.321.729-.443,1-.748a33.294,33.294,0,0,0,2.783-3.341,5.861,5.861,0,0,1,6.136-2.873A7.238,7.238,0,0,1-203,354.73c1.591,1.558,1.293,3.521.743,5.46-.184.648-.208,1.345-.424,1.98-.357,1.051-.822,2.064-1.22,3.1-.271.707-.521,1.424-.744,2.148-.04.132.095.319.149.48a6.4,6.4,0,0,0,.916-.517c1.047-.832,2.131-1.632,3.086-2.561a11.544,11.544,0,0,0,1.444-2.051c.678-1.04,1.348-2.085,2-3.144.74-1.211,1.412-2.464,2.2-3.644a1.837,1.837,0,0,1,1.144-.774c.93-.1,2.082-.341,2.784.078,1.8,1.073-.108,1.787-.521,2.609-.441.878-1.019,1.689-1.548,2.522q-1.216,1.918-2.452,3.825c-.323.5-.707.958-1,1.473-.087.153.054.435.091.657.251-.243.522-.469.749-.733.755-.877,1.491-1.77,2.238-2.653.729-.861,1.438-1.74,2.2-2.572q1.772-1.94,3.608-3.818c.546-.558,1.211-1,1.744-1.57.508-.543,2.847-.361,3.39.313a4.74,4.74,0,0,0,.708.7c.945.766.392,1.3-.187,1.963a15.474,15.474,0,0,0-1.038,1.877c-.7,1.09-1.5,2.116-2.159,3.225a6.947,6.947,0,0,0-.5,1.651c-.31.263-.622.523-.918.8a3.153,3.153,0,0,0,.221.3l.687-1.106c.466-.463.951-.909,1.394-1.393.75-.819,1.48-1.656,2.2-2.5.745-.866,1.42-1.8,2.224-2.605a25.354,25.354,0,0,1,3.69-3.35c2.376-1.581,2.817-.842,4.711,1.033.179.178-.086.96-.315,1.366-.67,1.191-1.4,2.353-2.157,3.492-.537.807-2.732,3.905-3.195,4.708-.512.888-3.782,5.08-3.291,8.4.013.086.339.343.351.332,3.312-1.28,6.208-5.964,7.154-7.128.608-1.273,5.356-12.844,8.737-15.459a21.526,21.526,0,0,1,5.441-3.533c1.588-.574,2.414.728,3.368,1.609,1.207,1.114-.322,5.429-1.384,6.949a27.615,27.615,0,0,1-3.559,4.156,4.434,4.434,0,0,1-2.5,1.277c-.912.067-1.858-.576-2.818-.774a1.287,1.287,0,0,0-1.111.427,25.266,25.266,0,0,0-1.468,3.252,21.475,21.475,0,0,0-1.027,3.369,17.334,17.334,0,0,0-.246,3.263c0,.425.444,1.609,1.717.558,4.914-4.815,9.726-9.736,14.726-14.457,3.462-3.269,7.159-6.292,10.795-9.372a7.393,7.393,0,0,1,2.234-1.185c2.213-.815,3.794.731,3.68,3.569-.137,3.371-1.887,6.016-3.837,8.6-2.779,3.678-5.481,7.413-8.226,11.116-.289.391-.688.7-.957,1.1a1.142,1.142,0,0,0-.321.951c.216.135.512.135,1.106-.162a12.122,12.122,0,0,1,2.077-.593c3.324-.465,5.044.593,5.341,3.857.3,1.483.727,1.482,1.483.89,3.8-2.971,7.555-5.442,11.078-8.709,5.589-5.183,9.945-11.262,11.016-19.091.265-1.939.482-4.057-1.114-5.687-.387-.4-1.017-.542-1.467-.892a8.279,8.279,0,0,1-1-1.1c.485-.149,1.092-.563,1.435-.4a7.445,7.445,0,0,1,4.463,5.978c.655,4.4-.794,8.376-2.413,12.35-3.209,7.877-9.519,12.84-16.224,17.437-2.163,1.483-4.454,2.781-6.6,4.286a3.909,3.909,0,0,0-1.312,1.948,44.47,44.47,0,0,1-12.712,20.4c-2.559,2.29-5.656,2.427-8.782,1.2-2.173-.855-2.819-3.478-1.433-6.151a31.38,31.38,0,0,1,9.726-10.93c3.642-2.638,7.386-5.134,11.077-7.7,1.192-.831,1.574-3.155.743-4.8-.731-1.441-2.025-1.194-3.252-.888a15.559,15.559,0,0,0-8.625,5.648c-.619.782-1.492,1.815-2.554.882-1.314-1.155-1.841-2.262-.547-3.619a138.67,138.67,0,0,0,16.431-21.284,35.381,35.381,0,0,0,1.76-3.157c.307-1.234.6-2.124-1.09-1.085a80.737,80.737,0,0,0-8.1,6.675c-5.534,5.214-10.355,10.339-15.725,15.726-1.433,1.437-4.951,1.3-6.335-.277a19.153,19.153,0,0,1-1.425-2.139,1,1,0,0,0-.25-.267c-.02-.015-.146.089-.2.156a28.425,28.425,0,0,1-2.219,2.72,12.881,12.881,0,0,1-3.251,2.528,3.871,3.871,0,0,1-2.956.01,3.4,3.4,0,0,1-2.041-3.966,22.979,22.979,0,0,1,1.051-3.106c.423-1.125.854-2.25,1.358-3.339.676-1.463,1.423-2.892,2.144-4.333.117-.233.262-.453.393-.679l.468-.61.444-.253-.232-.2-.2.462-.533.556a22.607,22.607,0,0,0-1.878,1.56c-.82.835-1.58,1.733-2.323,2.639-.514.626-.944,1.32-1.437,1.965-1.243,1.628-2.541,3.216-3.738,4.876-.689.954-1.124,2.1-1.863,3.006a3.465,3.465,0,0,1-2.077,1.419c-.493.008-1.452-1.189-1.424-1.812a18.834,18.834,0,0,1,.946-4.7,25.6,25.6,0,0,1,1.757-4.057c.775-1.5,1.689-2.933,2.528-4.4a1.235,1.235,0,0,0,.052-.468l.451-.329-.211-.162Zm26.081,41.991c2.5.084,3.862-1.711,5.056-2.983,3.443-3.666,6.65-7.559,9.826-11.464a11.281,11.281,0,0,0,2.045-3.874c.1-.2,0-.486,0-.733a2.073,2.073,0,0,0-.757.167c-.545.383-1.035.844-1.562,1.253a102.048,102.048,0,0,0-10.033,7.836,14.179,14.179,0,0,0-5.126,8.215C-162.592,401.635-162.738,402.626-161.97,402.839Zm-53.164-34.092.414.135a2.229,2.229,0,0,0,.006.536c.269,1.061-.058,2.427,1.938,2.286,1.56-.11,1.832-1.263,2.361-2.144a38,38,0,0,0,2.409-4.917c.624-1.5,1.067-3.069,1.581-4.611a13.05,13.05,0,0,0,.639-2.12,6.4,6.4,0,0,0-.169-1.64,5.136,5.136,0,0,0-.887.309,23.937,23.937,0,0,0-2.319,1.4,9.085,9.085,0,0,0-2.266,1.934,21.153,21.153,0,0,0-2.112,4.009C-214.179,365.487-214.611,367.136-215.134,368.747Zm-5.048,9.14c.115.9.225,1.947.407,2.985.028.156.52.4.577.354a15.612,15.612,0,0,0,1.7-1.65c1.357-1.6,2.689-3.23,3.981-4.886a.99.99,0,0,0,0-.956,35.279,35.279,0,0,0-3.064-2.291c-.28-.186-1.015-.237-1.075-.118a36.077,36.077,0,0,0-1.44,3.337C-219.48,375.671-219.789,376.709-220.182,377.887Zm55.289-18.72a3.1,3.1,0,0,0,.225.72,6.709,6.709,0,0,0,2.743-.269,10.086,10.086,0,0,0,4.245-5.416,9.67,9.67,0,0,0,.625-1.636,4.548,4.548,0,0,0-.08-1.383.418.418,0,0,0-.333-.069,30.714,30.714,0,0,0-2.592,2.109,41.427,41.427,0,0,0-3.042,3.311C-163.781,357.358-164.313,358.3-164.893,359.167Z" transform="translate(262.258 -299.752)"/>
      <path class="cls-5" d="M-178.476,327.862c.694-.591,1.407-1.161,2.076-1.779,1.1-1.019,2.171-2.07,3.256-3.105.825-.788,1.649-1.577,2.48-2.357.734-.689,1.519-1.328,2.2-2.062.669-.716,1.2-1.564,1.862-2.283.943-1.017,1.815-2.275,3-2.817.584-.267,1.875.739,2.7,1.364.513.39,1.158,1.266,1.026,1.712a12.587,12.587,0,0,1-1.617,2.907c-.4.636-.868,1.227-1.3,1.843-.978,1.4-2,2.772-2.908,4.218a21.7,21.7,0,0,0-1.133,2.5c-.433.939-.919,1.855-1.321,2.807a8.384,8.384,0,0,0-.506,1.733q-.532,2.882-.98,5.777c-.025.161.22.364.339.547.146-.173.286-.353.439-.519a24.3,24.3,0,0,0,1.988-2.181,65.054,65.054,0,0,1,6.415-10.722,43.706,43.706,0,0,1,7.585-6.286c3.191-1.394,4.573-2.335,6.436-2.021a9.864,9.864,0,0,1,3.374,1.057c1.007.6,2.2,1.366,1.853,2.925-.047.211-.349.54-.5.522-.5-.062-1.261-.109-1.43-.425-.513-.958-.892-1.9-2.257-1.547l-.175.048c.025.016.049.033.075.047l.438.224a3.233,3.233,0,0,0-.6.131c-1.2.513-2.419,1-3.587,1.58a9.818,9.818,0,0,0-2.053,1.35c-.865.754-1.635,1.618-2.442,2.438s-1.622,1.581-2.363,2.432c-.648.744-1.2,1.573-1.788,2.37s-1.175,1.588-1.734,2.4c-.44.64-.83,1.313-1.252,1.965s-.872,1.245-1.237,1.906a10.289,10.289,0,0,0-.722,1.717,9.057,9.057,0,0,0-.464,1.831,4.012,4.012,0,0,0,.229,1.192,8.861,8.861,0,0,0,1.423-.7c.828-.605,1.6-1.289,2.393-1.94q1.125-.921,2.25-1.842c.593-.49,1.19-.976,1.77-1.481.963-.84,1.912-1.695,2.87-2.54a17.357,17.357,0,0,0,1.869-1.67c.493-.584.74-1.37,1.206-1.984.932-1.228,1.908-2.428,2.935-3.578.362-.4.956-.91,1.395-.867a3.677,3.677,0,0,1,2.143.913c.22.222-.2,1.291-.552,1.825-.712,1.075-1.58,2.047-2.384,3.061-.614.775-1.259,1.528-1.832,2.332a8.607,8.607,0,0,0-1.018,1.784c-.4,1.023-.712,2.085-1.026,3.14-.046.156.088.523.158.528a1.343,1.343,0,0,0,.791-.133c.7-.449,1.373-.931,2.021-1.447.813-.647,1.593-1.338,2.385-2.013.944-.8,1.9-1.59,2.821-2.422.6-.544,1.123-1.172,1.709-1.733.748-.717,1.546-1.383,2.282-2.112.625-.62,1.192-1.3,1.785-1.95q.817-.9,1.636-1.793c.043.1.133.21.121.307-.378,3.228-2.557,5.322-4.7,7.443-1.087,1.078-2.128,2.2-3.244,3.248-.924.864-1.907,1.67-2.905,2.449a20.323,20.323,0,0,1-2.424,1.669,20.032,20.032,0,0,1-3.481,1.683c-.336.112-1.246-.512-1.379-.953-.439-1.453-.643-2.978-.94-4.475a1.1,1.1,0,0,0-.079-.2c-.069.059-.141.116-.207.178-.674.633-1.354,1.26-2.019,1.9-.59.572-1.187,1.14-1.738,1.749-1.592,1.757-3.106,3.665-5.588,4.141a4.5,4.5,0,0,1-2.121-.614,2.2,2.2,0,0,1-1.026-.71c-.5-.763-.871-1.6-1.305-2.409a.351.351,0,0,0-.239-.162c-.049,0-.1.15-.171.195-.466.281-.942.546-1.408.829a20.945,20.945,0,0,1-2.225,1.348c-1.044.467-1.775.065-2.17-1.033-.5-1.379-1.1-2.718-1.557-4.109-.109-.337.264-.8.3-1.221a17.033,17.033,0,0,1,.045-1.95c.438-2.045.9-4.09,1.483-6.1a18.226,18.226,0,0,1,1.236-2.473c.087-.187-.019-.463-.036-.7a4.388,4.388,0,0,0-.671.486c-1.116,1.178-2.2,2.389-3.327,3.554-.766.79-1.629,1.488-2.378,2.293-.594.638-1.065,1.389-1.62,2.066-.622.76-1.295,1.479-1.912,2.243-.773.957-1.5,1.955-2.271,2.912-.551.681-1.157,1.319-1.73,1.983-.318.369-.546.9-.944,1.1a3.263,3.263,0,0,1-1.845.38c-1.076-.19-1.342-1.024-1.1-2.04a1.425,1.425,0,0,0-.016-.389c.155-.164.314-.324.461-.5.019-.022-.022-.1-.035-.144l-.418.648a5.059,5.059,0,0,0-1.478.706c-.88.865-3.044.82-3.6-.312a7.6,7.6,0,0,1-.808-3.159c-.007-.7.669-1.4,1.019-2.116a6.228,6.228,0,0,0,.27-.79,7.461,7.461,0,0,0-.914.714c-.81.853-1.578,1.747-2.385,2.6-.743.789-4.584,4.717-6.272,4.2-1.039-.315-1.856-1.36-2.771-2.08-.1-.082-.2-.177-.3-.266a3.454,3.454,0,0,1-.285.318A22.315,22.315,0,0,1-209.9,341.5a4.956,4.956,0,0,1-2.4.584,3.486,3.486,0,0,1-3.351-3.255c.183-6.094,6.391-14.921,7.039-15.92.7-1.075,3.45-4.365,3.952-5.053a1.653,1.653,0,0,1,2.694-.124c.247.255.661.339.954.56,1.587,1.2-1.8,4.042-2.446,4.85-.782.979-1.595,1.933-2.373,2.916-.372.47-2.439,3.405-3.063,4.418-.445.721-2.274,4.255-2.743,5.284a24.294,24.294,0,0,0-.83,2.5c-.419,1.458.728,1.245,1.046,1.011,1.046-.769,2-1.661,3-2.493a7.978,7.978,0,0,0,2.818-3.622c.479-1.427,3.7-6.312,4.474-7.416a25.6,25.6,0,0,1,6.478-6.248c.861-.544,2.959-1.694,3.119-1.73a8.626,8.626,0,0,1,2.539-.481,20.779,20.779,0,0,1,4.739.955c.6.209.926,1.209,1.393,1.836.112.151.368.226.42.382s-.045.532-.112.541c-.379.049-.976.176-1.121-.013a2.163,2.163,0,0,0-2.569-.777,21.557,21.557,0,0,0-3.542,1.6,61.249,61.249,0,0,0-7.212,5.858c-.759.8-1.487,1.624-2.2,2.458a45.133,45.133,0,0,0-2.98,4.276,24.946,24.946,0,0,0-1.336,3.1,2.517,2.517,0,0,0-.216,1.674c.575,1.135,1.325.067,1.7-.211,1.788-1.338,3.5-2.78,5.157-4.285,1.188-1.082,2.218-2.337,3.349-3.485.642-.651,1.418-1.181,2-1.876.757-.9,1.345-1.94,2.078-2.863.546-.688,1.221-1.273,1.813-1.926a11.969,11.969,0,0,1,1.718-1.922,5.434,5.434,0,0,1,2.311-.775c.209-.03.822.8.733,1.061a6.667,6.667,0,0,1-1.111,1.543c-.624.85-1.242,1.7-1.846,2.568-.654.937-1.343,1.856-1.918,2.84-.6,1.023-1.067,2.12-1.614,3.173-.457.883-.966,1.739-1.413,2.628a17.026,17.026,0,0,0-.735,1.777c-.022.058.169.274.267.278.125.006.264-.119.383-.206.579-.429,1.176-.838,1.725-1.3a27.37,27.37,0,0,0,2.851-2.559,21.376,21.376,0,0,0,2.038-2.982c.584-.943,1.051-1.96,1.649-2.893.547-.854,1.231-1.619,1.8-2.462.6-.888,1.116-1.829,1.693-2.732.444-.7.941-1.356,1.388-2.049a9.54,9.54,0,0,0,1.108-1.895c.52-1.493,2.231-3.139,3.581-2.874.771.152,1.919,1.062,1.941,1.667.029.763-.892,1.58-1.448,2.342-.6.827-1.262,1.615-1.892,2.424-.776,1-1.577,1.976-2.31,3-.619.867-1.157,1.793-1.73,2.693l-.469.339.231.2Zm9.4,12.585-.254-.373a1.3,1.3,0,0,0-.19.3c-.015.042.087.177.133.175A1.119,1.119,0,0,0-169.075,340.447Z" transform="translate(262.258 -299.752)"/>
      <path class="cls-5" d="M-247.375,345.653a32.662,32.662,0,0,1-4.39-.71,11.261,11.261,0,0,1-5.493-3.367c-.926-1.07-2.1-1.923-3.031-2.99a6.431,6.431,0,0,1-1.292-2.324,10.5,10.5,0,0,1-.653-3.868c.1-.976.994-1.871,1.535-2.8.513.333,1.356.58,1.47,1.018.257.983-.028,2.109.237,3.088.37,1.366,1.107,2.628,1.562,3.976.425,1.257,1.409,1.423,2.488,1.6a19.941,19.941,0,0,0,3.587.652c1.312-.04,2.644-.045,3.422-1.807,2.893-4.97,9.272-15.464,9.693-16.11.758-1.163,6.341-9.168,6.78-9.759.546-.736,2.261-3.03,2.55-3.459.579-.859,1.1-1.762,1.763-2.556.483-.582,3.1-.061,3.657.6a12.975,12.975,0,0,1,1.691,1.923,1.83,1.83,0,0,1-.262,1.617c-.891,1.109-6.522,7.254-7.141,7.991-.764.912-5.937,7.432-6.262,7.812-.6.705-8.411,11.693-8.742,12.375-.066.135.107.385.17.582,5.523-.482,12.219-4.642,12.9-5.116.885-.613,4.4-3.216,5.28-3.884,1.027-.78,1.977-1.66,2.97-2.486.828-.688,1.7-1.324,2.493-2.052.627-.577,3.11-3.244,3.725-3.982.459-.55,7.525-8.867,6.3-13.558a7.91,7.91,0,0,0-2.382-3.337c-.817-.613-4.145-1.967-9.449-1.355-3.6.415-6.323,1.02-13.339,4.609-.788.4-4.666,3.037-5.844,3.9-.6.444-3.413,2.515-4.146,3.185a69.6,69.6,0,0,0-5.28,6.392,7.633,7.633,0,0,0-.881,5.273,10.065,10.065,0,0,0,.5,1.592,1.2,1.2,0,0,1,.022.653.5.5,0,0,1-.442.173,15.882,15.882,0,0,1-2.72-2.023,7.392,7.392,0,0,1-1.52-2.673,9.677,9.677,0,0,1,.2-5.471c.415-2.15,2.3-4.464,2.91-5.25,5.052-6.282,13.657-10.061,15.231-10.8,4.508-2.212,13.447-3.179,14.437-3.174a24.69,24.69,0,0,1,5.3.388c4.76.574,8.157,3.5,9.247,5.47,1.357,2.313,1,4.9.816,6.731.038,3.758-3.875,12.646-13.116,20.8-2.182,2.449-8.79,6.807-9.729,7.344A42.167,42.167,0,0,1-247.375,345.653Z" transform="translate(262.258 -299.752)"/>
      <path class="cls-5" d="M-161.3,387.677a3.558,3.558,0,0,1-1.044.153c-.144-.02-.2-.447-.358-.635a10.645,10.645,0,0,0-2.208-2.458,12.283,12.283,0,0,0-8.047-1.436c-5.213.336-16.488,3.3-22.2,6.01-1.907.745-3.828,1.462-5.7,2.283-2.076.909-13.454,6.311-15.192,7.2-1.86.947-3.723,1.89-5.559,2.883-1.115.6-3.425-.3-4.052-1.614a8.478,8.478,0,0,1-.792-1.422c-.074-.3.253-.723.44-1.068a5.846,5.846,0,0,1,.956-1.534c.287-.267,8.669-4.178,10-4.817.825-.4,5.529-2.528,7.1-3.04,2.23-.728,10.034-3.169,11.683-3.74,8.317-2.879,19.449-4.309,24.654-4.7a12.116,12.116,0,0,1,5.992,1.521c1.182.6,1.895,2.188,2.716,3.4a18.148,18.148,0,0,1,1.171,2.387Z" transform="translate(262.258 -299.752)"/>
      <path class="cls-5" d="M-198.444,314.734c-.759-.554-1.371-.773-1.432-1.1a3.281,3.281,0,0,1,.213-1.851,34.354,34.354,0,0,1,1.833-3.378c.692-1.167,1.452-2.294,2.169-3.447a9.1,9.1,0,0,1,1.591-2.482,3.345,3.345,0,0,1,2.459-.364,5.255,5.255,0,0,1,2.056,1.3c.239.2.27.695.3,1.064.01.11-.309.236-.458.376-.955.9-1.934,1.769-2.847,2.706-.791.812-1.523,1.683-2.246,2.556-.55.665-1.034,1.385-1.568,2.063C-197.022,313.006-197.693,313.811-198.444,314.734Z" transform="translate(262.258 -299.752)"/>
      <path class="cls-5" d="M-185.612,364.748l-.687,1.106a3.153,3.153,0,0,1-.221-.3c.3-.278.608-.538.918-.8Z" transform="translate(262.258 -299.752)"/>
      <path class="cls-5" d="M-178.079,360.247l-.468.61-.056-.045.533-.556Z" transform="translate(262.258 -299.752)"/>
      <path class="cls-5" d="M-188.051,360.848l.231-.5.211.162-.451.329Z" transform="translate(262.258 -299.752)"/>
      <path class="cls-5" d="M-236.89,379.333l.192-.463.215.161-.416.294Z" transform="translate(262.258 -299.752)"/>
      <path class="cls-5" d="M-178.07,360.256l.2-.462.232.2-.444.253Z" transform="translate(262.258 -299.752)"/>
      <path class="cls-5" d="M-178.476,327.862l-.228.546-.231-.2.469-.339Z" transform="translate(262.258 -299.752)"/>
      <path class="cls-5" d="M-189.621,339.318l.418-.648c.013.049.054.122.035.144-.147.171-.306.331-.461.5Z" transform="translate(262.258 -299.752)"/>
      <path class="cls-5" d="M-169.075,340.447a1.119,1.119,0,0,1-.311.1c-.046,0-.148-.133-.133-.175a1.3,1.3,0,0,1,.19-.3Z" transform="translate(262.258 -299.752)"/>
    </g>
  </g>
</svg>
