<svg id="Capa_3" data-name="Capa 3" xmlns="http://www.w3.org/2000/svg" viewBox="0 0 166.444 166.444">
  <defs>
    <style>
      .cls-1, .cls-2 {
        fill: none;
      }

      .cls-2 {
        stroke: #0008ff;
        stroke-miterlimit: 10;
        stroke-width: 3px;
      }

      .cls-3, .cls-4 {
        isolation: isolate;
      }

      .cls-4 {
        font-size: 29.363px;
        fill: #0008ff;
        font-family: Lato-BlackItalic, Lato;
        font-weight: 800;
        font-style: italic;
      }
    </style>
  </defs>
  <title>face</title>
  <rect class="cls-1" width="166.444" height="166.444"/>
  <g>
    <g id="Grupo_44" data-name="Grupo 44">
      <g id="Grupo_46" data-name="Grupo 46">
        <path id="Trazado_1" data-name="Trazado 1" class="cls-2" d="M559.65,675.215a430.028,430.028,0,0,1,76.54-26.948" transform="translate(-520.761 -629.666)"/>
        <path id="Trazado_2" data-name="Trazado 2" class="cls-2" d="M638.085,648.068a60.331,60.331,0,0,1,18.9,48.865" transform="translate(-520.761 -629.666)"/>
        <path id="Trazado_3" data-name="Trazado 3" class="cls-2" d="M556.8,678.887c-.6,9.162.007,18.708,4.177,26.888s12.559,14.7,21.739,14.468" transform="translate(-520.761 -629.666)"/>
        <path id="Trazado_4" data-name="Trazado 4" class="cls-2" d="M583.191,724.78c13.754-4.188,28.183-5.671,42.124-9.192s27.919-9.494,37.074-20.581" transform="translate(-520.761 -629.666)"/>
        <path id="Trazado_5" data-name="Trazado 5" class="cls-2" d="M572.959,702.566c-.675,3.315,3.121,6.543,6.352,5.539a5.685,5.685,0,0,0,2.707-8.3,6.324,6.324,0,0,0-8.878-1.069c-.023.019-.046.038-.07.056" transform="translate(-520.761 -629.666)"/>
        <path id="Trazado_6" data-name="Trazado 6" class="cls-2" d="M641.461,679.557c-1.959-1.121-4.646,1.022-4.419,3.262a4.573,4.573,0,0,0,4.895,3.678,5.593,5.593,0,0,0-.878-11.152,5.666,5.666,0,0,0-.635.087" transform="translate(-520.761 -629.666)"/>
        <path id="Trazado_7" data-name="Trazado 7" class="cls-2" d="M592.354,711.192l43.869-16.639c1.576,2.163-.18,5.532-2.753,6.267a8.239,8.239,0,0,1-7.361-2.246l-3.419,6.485a2.156,2.156,0,0,1-1.173,1.235c-.74.193-1.422-.419-1.94-.981l-4.564-4.939a5.046,5.046,0,0,1-1.511,6.975c-.126.081-.255.157-.388.226A4.728,4.728,0,0,1,606.751,704c-.033,4.453-5.332,6.652-9.665,7.7l-5,1.212c-1.815.44-4.295.557-4.956-1.188" transform="translate(-520.761 -629.666)"/>
        <path id="Trazado_8" data-name="Trazado 8" class="cls-2" d="M558.835,669.611q41.724-8.373,83.762-15.058" transform="translate(-520.761 -629.666)"/>
        <path id="Trazado_9" data-name="Trazado 9" class="cls-2" d="M562.8,677q-4.4,34.043-5.736,68.389" transform="translate(-520.761 -629.666)"/>
        <path id="Trazado_10" data-name="Trazado 10" class="cls-2" d="M645.562,658.748l23.745,46.862" transform="translate(-520.761 -629.666)"/>
        <path id="Trazado_11" data-name="Trazado 11" class="cls-2" d="M535.278,669.883c4.485-4.815,3.619-12.885,7.889-17.9a20.618,20.618,0,0,1,8.264-5.111,201.146,201.146,0,0,1,103.022-12.839,9.451,9.451,0,0,1,4.53,1.467c2.092,1.594,2.517,4.523,2.729,7.146a220.874,220.874,0,0,1-7.536,77.6" transform="translate(-520.761 -629.666)"/>
        <path id="Trazado_12" data-name="Trazado 12" class="cls-2" d="M532.372,674.776a168.863,168.863,0,0,0,24.287,75.3" transform="translate(-520.761 -629.666)"/>
      </g>
    </g>
    <g id="MENU" class="cls-3">
      <text class="cls-4" transform="translate(57.124 138.165) rotate(-15.009)">MENU</text>
    </g>
  </g>
</svg>
