<svg id="Capa_1" data-name="Capa 1" xmlns="http://www.w3.org/2000/svg" viewBox="0 0 154.105 192">
  <defs>
    <style>
      .cls-1, .cls-2 {
        fill: none;
      }

      .cls-1, .cls-2, .cls-3 {
        stroke: #fff;
        stroke-width: 5px;
      }

      .cls-1 {
        stroke-miterlimit: 10.001;
      }

      .cls-3 {
        fill: #fff;
        stroke-miterlimit: 10;
      }
    </style>
  </defs>
  <title>face</title>
  <g>
    <g id="Grupo_47" data-name="Grupo 47">
      <g id="Grupo_1" data-name="Grupo 1">
        <path id="Trazado_1" data-name="Trazado 1" class="cls-1" d="M36.456,56.775A426.982,426.982,0,0,1,112.62,30.454"/>
        <path id="Trazado_2" data-name="Trazado 2" class="cls-1" d="M114.5,30.268A59.916,59.916,0,0,1,133,78.9"/>
        <path id="Trazado_5" data-name="Trazado 5" class="cls-1" d="M49.515,84.013c-.689,3.288,3.061,6.516,6.276,5.536a5.642,5.642,0,0,0,2.736-8.226,6.279,6.279,0,0,0-8.81-1.112l-.07.055"/>
        <path id="Trazado_6" data-name="Trazado 6" class="cls-1" d="M117.674,61.558c-1.939-1.124-4.619.988-4.407,3.214a4.542,4.542,0,0,0,4.841,3.68,5.554,5.554,0,1,0-.809-11.079,5.4,5.4,0,0,0-.631.083"/>
        <path id="Trazado_7" data-name="Trazado 7" class="cls-1" d="M63.654,93.54l48.74-17.113c1.553,2.157-.21,5.493-2.77,6.207a8.174,8.174,0,0,1-7.3-2.28l-3.433,6.42a2.139,2.139,0,0,1-1.173,1.22c-.735.188-1.409-.424-1.92-.985l-4.5-4.931A5.012,5.012,0,0,1,89.75,89q-.189.12-.387.222A4.7,4.7,0,0,1,83.3,86.5a4.748,4.748,0,0,1-.239-.87c-.059,4.422-4.208,9.243-8.517,10.261-1.658.391-4.443-1.884-6.1-1.493-1.8.426-4.268.528-4.914-1.209"/>
        <path id="Trazado_692" data-name="Trazado 692" class="cls-1" d="M122.716,108.7l-9.976,3.717L79.055,124.972s.21-5.493,2.77-6.207a8.175,8.175,0,0,1,7.3,2.272l3.433-6.42a2.139,2.139,0,0,1,1.173-1.22c.735-.188,1.409.424,1.92.985l4.5,4.931a5.012,5.012,0,0,1,1.54-6.918q.189-.12.387-.222a4.7,4.7,0,0,1,6.06,2.714,4.748,4.748,0,0,1,.239.87c.059-4.422,5.333-6.576,9.642-7.595L123,106.988a10.97,10.97,0,0,1,1.917-.263"/>
        <path id="Trazado_8" data-name="Trazado 8" class="cls-1" d="M35.679,51.205q41.483-8.074,83.268-14.472"/>
        <path id="Trazado_9" data-name="Trazado 9" class="cls-1" d="M39.579,58.562q-4.568,33.783-6.09,67.882"/>
        <path id="Trazado_10" data-name="Trazado 10" class="cls-1" d="M121.867,40.917,145.178,87.59"/>
        <path id="Trazado_11" data-name="Trazado 11" class="cls-1" d="M12.283,51.339c4.482-4.755,3.669-12.775,7.937-17.728a20.483,20.483,0,0,1,8.237-5.028A199.739,199.739,0,0,1,130.838,16.426a9.394,9.394,0,0,1,4.491,1.483c2.068,1.6,2.473,4.506,2.669,7.112,1.951,25.872-5.94,44.5-3.24,80.366"/>
        <path id="Trazado_12" data-name="Trazado 12" class="cls-1" d="M9.369,56.181A167.713,167.713,0,0,0,33.054,131.1"/>
        <line id="Línea_1" data-name="Línea 1" class="cls-2" x1="123.383" y1="106.981" x2="113.075" y2="76.753"/>
        <line id="Línea_2" data-name="Línea 2" class="cls-2" x1="78.281" y1="125.296" x2="63.999" y2="92.022"/>
      </g>
      <g id="Grupo_46" data-name="Grupo 46">
        <path id="Trazado_693" data-name="Trazado 693" class="cls-1" d="M33.608,60.405c-.644,9.095-.1,18.578,3.994,26.725s12.387,14.668,21.5,14.493"/>
        <path id="Trazado_694" data-name="Trazado 694" class="cls-1" d="M59.548,106.132c7.278-2.173,2.454.2,10.344-1.231"/>
        <path id="Trazado_695" data-name="Trazado 695" class="cls-1" d="M114.663,87.189s5.113-1,11.824-6.266a45.375,45.375,0,0,0,6.586-6.5"/>
      </g>
    </g>
    <path id="Trazado_696" data-name="Trazado 696" class="cls-3" d="M134.2,128.551a32.257,32.257,0,0,1-2.323,9.037,117.4,117.4,0,0,1-5.713,12.071l-2.4,4.613.518.272q6.03,3.195,12.06,6.392a3.9,3.9,0,0,1,1.867,1.877,3.26,3.26,0,0,1-.416,3.382,2.4,2.4,0,0,0-.322.7,3.385,3.385,0,0,1-2.015,2.321,1.08,1.08,0,0,0-.405.323,2.894,2.894,0,0,1-2.855,1.121,39.951,39.951,0,0,1-10.522-3.237c-1.075-.474-2.138-.98-3.324-1.523-.227.517-.416,1.022-.66,1.507a34.737,34.737,0,0,1-4.115,6.557,15.672,15.672,0,0,1-3.831,3.478,2.59,2.59,0,0,1-2.256.268,13.588,13.588,0,0,1-4.182-2,4.38,4.38,0,0,1-1.624-4.842,16.7,16.7,0,0,1,1.855-4.424c.995-1.787,2.029-3.552,3.046-5.328.13-.226.254-.454.4-.715-1.563-.671-3.093-1.325-4.628-1.986a64.651,64.651,0,0,1-10.266-5.235,34.216,34.216,0,0,1-2.927-2.23A2.665,2.665,0,0,1,88.246,148a9.129,9.129,0,0,1,1.947-3.645,3.551,3.551,0,0,0,.63-1.078,3.31,3.31,0,0,1,4.277-1.9,3.483,3.483,0,0,1,.363.165q6.119,2.679,12.226,5.38c1.782.785,3.558,1.574,5.381,2.386.086-.15.17-.283.242-.422,3.954-7.561,7.651-15.245,11-23.093a3.259,3.259,0,0,1,4.1-1.928,36.713,36.713,0,0,1,3.5,1.287,2.466,2.466,0,0,1,1.254,1.319c.212.433.484.834.729,1.25Z"/>
  </g>
</svg>
