<svg id="Capa_1" data-name="Capa 1" xmlns="http://www.w3.org/2000/svg" viewBox="0 0 122 90">
  <defs>
    <style>
      .cls-1 {
        fill: #fff;
      }
    </style>
  </defs>
  <title>log</title>
  <g>
    <path class="cls-1" d="M52.625,44.96a1.537,1.537,0,0,1-.489-.08,1.577,1.577,0,0,1-.92-.825.862.862,0,0,1-.1-.464,1.394,1.394,0,0,1,1.233-1.13,13.082,13.082,0,0,1,1.739-.765c.16-.061.32-.122.478-.185l.187-.077c.118-.05.24-.1.373-.148.209-.073.419-.13.633-.187.1-.027.206-.051.309-.074l.224-.052.212-.054c.273-.069.531-.134.788-.208s.491-.145.736-.22c.378-.114.768-.233,1.161-.339a13.35,13.35,0,0,1,1.4-.3c.887-.137,1.833-.279,2.774-.377a4.359,4.359,0,0,1,2.076.287,2.4,2.4,0,0,1,1.245,1.358.809.809,0,0,1,.061.539l-.005.025a.77.77,0,0,1-.494.637.709.709,0,0,1-.608-.068.692.692,0,0,1-.306-.436.591.591,0,0,0-.35-.206,5.943,5.943,0,0,0-1.9-.033,7.879,7.879,0,0,0-1.025.2,10.208,10.208,0,0,1-1.066.21,5.41,5.41,0,0,0-1,.267c-.166.055-.332.11-.5.159l-.3.088c-.292.084-.568.164-.839.257-.408.141-.824.308-1.226.468-1.033.414-1.959.788-2.844,1.15-.323.132-.612.253-.881.391A1.7,1.7,0,0,1,52.625,44.96Z"/>
    <path class="cls-1" d="M61.413,50.934a14.329,14.329,0,0,0-1.357,1.1c-.683.7-1.32,1.443-1.949,2.191-.364.434-.668.918-1.009,1.372-.762,1.014-1.552,2.008-2.291,3.038-.792,1.107-1.521,2.26-2.314,3.367-.375.524-.862.968-1.245,1.488-.28.38-.39.921-.729,1.21a1.328,1.328,0,0,1-1.161.244c-.871-.444-1.03-1.142-.514-2.057a21.548,21.548,0,0,0,.983-2.4c.4-.973.815-1.939,1.222-2.909.038-.091.06-.189.09-.284a1.307,1.307,0,0,0-.483.092,25.573,25.573,0,0,0-2.494,1.765,8.294,8.294,0,0,0-1.236,1.614c-.507.733-.951,1.511-1.481,2.226-.815,1.1-1.689,2.151-2.521,3.236-.995,1.3-2.111,1.7-3.815.679a8.1,8.1,0,0,1-2.666-2.192,5.408,5.408,0,0,1-.3-2.785,7.687,7.687,0,0,1,.357-2.053c.216-.736.572-1.431.822-2.159a1.579,1.579,0,0,0-.009-.757.95.95,0,0,0-.49-.024,19.853,19.853,0,0,0-2.3.583,2,2,0,0,0-.81.758c-.576.814-1.135,1.642-1.645,2.5-.35.588-.591,1.239-.911,1.846-.506.961-1.073,1.893-1.547,2.869a14.617,14.617,0,0,0-.645,1.829c-.261.783-.535,1.564-.756,2.359a13.643,13.643,0,0,0-.3,1.6,28.113,28.113,0,0,1-.518,3.322c-.244.871-.935.341-1.162-.008a5.3,5.3,0,0,1-.74-5.111c.4-1.014.618-2.1.934-3.153.246-.819.517-1.631.777-2.445l.291-.206-.15-.113-.135.325a11.307,11.307,0,0,0-1.035.875c-.447.473-.825,1.011-1.264,1.492-1.129,1.235-2.217,2.515-3.432,3.659-1.052.99-2.288,1.781-3.387,2.725a4.207,4.207,0,0,1-4.217.725,6.559,6.559,0,0,1-2.141-1.449c-1.528-1.326-1.527-3.222-1.568-5a17.375,17.375,0,0,1,1.557-6.353c.521-1.125,1.12-2.218,1.741-3.293s1.255-2.123,1.965-3.127,1.521-1.965,2.309-2.926c.613-.746,1.232-1.49,1.9-2.187s1.372-1.3,2.058-1.952c.646-.613,1.249-1.278,1.938-1.838a27.511,27.511,0,0,1,3.22-2.4,33.167,33.167,0,0,1,5.114-2.614,4.3,4.3,0,0,1,2.734.287,5.829,5.829,0,0,1,2.219,1.583,2.406,2.406,0,0,1,.49,1.837,22.175,22.175,0,0,1-1.241,3.713,9.439,9.439,0,0,1-1.052,1.591,20.928,20.928,0,0,0-1.476,2.218c-.577,1.146-2.361,2.5-3.46,2.406-.227-.018-.63-.286-.618-.4a2.578,2.578,0,0,1,.384-1.241c.666-.89,1.46-1.685,2.13-2.573a20.9,20.9,0,0,0,1.719-2.612,16.8,16.8,0,0,0,1.077-2.608,4.774,4.774,0,0,0,.2-1.544c0-.117-.475-.38-.64-.321A20.213,20.213,0,0,0,31.8,43.669a20.8,20.8,0,0,0-2.354,1.509,21.009,21.009,0,0,0-1.794,1.47c-1.036.932-2.1,1.846-3.06,2.851-1.234,1.289-2.406,2.642-3.559,4.006-.547.648-.98,1.391-1.478,2.082-.634.88-1.311,1.73-1.909,2.632a15.423,15.423,0,0,0-.871,1.71c-.37.75-.758,1.493-1.1,2.257a23.286,23.286,0,0,0-1.086,2.657c-.475,1.558-.87,3.142-1.26,4.725-.251,1.017.74,2.671,1.409,2.362a24.339,24.339,0,0,0,3.388-2.007,24.1,24.1,0,0,0,2.338-1.889c.535-.469,1-1.013,1.515-1.509.5-.479,1.016-.93,1.509-1.409.478-.465.926-.959,1.4-1.425.8-.781,1.629-1.534,2.405-2.337.171-.176.173-.515.252-.779a3.665,3.665,0,0,0-1,.171c-1.049.509-2.058,1.1-3.109,1.607-.512.246-1.177.626-1.607.475a2.575,2.575,0,0,1-1.142-1.359c-.086-.186.342-.721.645-.954a18.29,18.29,0,0,1,2.529-1.72c1.113-.591,2.307-1.027,3.461-1.541a32.681,32.681,0,0,1,4.2-1.838,18.481,18.481,0,0,1,4.284-.5c.635-.025,1.289.448,1.924.424a1.881,1.881,0,0,0,1.166-.831c.482-.68.8-1.476,1.234-2.191.488-.8,1.017-1.567,1.569-2.319.165-.225.51-.31.7-.525a23.251,23.251,0,0,0,1.949-2.339,4.1,4.1,0,0,1,4.3-2.012,5.065,5.065,0,0,1,2.3,1.525c1.114,1.091.906,2.466.52,3.824-.129.454-.146.943-.3,1.387-.25.736-.576,1.446-.854,2.173-.19.495-.365,1-.521,1.5-.029.093.066.224.1.337a4.721,4.721,0,0,0,.642-.362c.733-.583,1.492-1.143,2.161-1.794a8.109,8.109,0,0,0,1.011-1.437c.475-.728.945-1.461,1.4-2.2.518-.848.989-1.726,1.538-2.552a1.292,1.292,0,0,1,.8-.543,3.5,3.5,0,0,1,1.95.055c1.261.752-.075,1.251-.364,1.827a20.611,20.611,0,0,1-1.085,1.767q-.852,1.344-1.717,2.679c-.226.348-.5.671-.7,1.032-.061.107.038.3.064.46.176-.17.366-.329.525-.514.528-.614,1.044-1.239,1.567-1.858.511-.6,1.008-1.219,1.54-1.8q1.242-1.359,2.527-2.674c.383-.391.848-.7,1.222-1.1a2.393,2.393,0,0,1,2.374.219,3.344,3.344,0,0,0,.5.491c.661.537.274.907-.132,1.375a10.932,10.932,0,0,0-.727,1.315c-.489.763-1.048,1.482-1.512,2.259a4.853,4.853,0,0,0-.349,1.156c-.217.184-.436.366-.643.561a2.065,2.065,0,0,0,.155.207l.481-.775c.326-.324.666-.636.976-.975.525-.573,1.036-1.16,1.544-1.749.522-.606,1-1.26,1.558-1.824a17.777,17.777,0,0,1,2.585-2.347c1.664-1.108,1.973-.59,3.3.724.126.124-.06.672-.22.956-.469.835-.98,1.648-1.511,2.446-.376.565-.832,1.078-1.216,1.639-.367.535-.7,1.1-1.022,1.659-.359.622-.71,1.249-1.031,1.891a10.95,10.95,0,0,0-.691,1.613c-.241.779-.408,1.582-.583,2.38-.013.06.238.24.246.233.967-.88,1.943-1.751,2.872-2.67a29.176,29.176,0,0,0,2.139-2.323,8.435,8.435,0,0,0,.922-1.611c.313-.633.581-1.288.862-1.937a10.957,10.957,0,0,1,.516-1.23c.543-.929,1.133-1.831,1.7-2.744a30.759,30.759,0,0,1,2.117-3.306A8.784,8.784,0,0,1,80.3,42.973,8.564,8.564,0,0,1,82,42.016c1.111-.4,1.691.51,2.358,1.126.846.781.447,1.591.054,2.429a17.265,17.265,0,0,1-1.023,2.439,19.4,19.4,0,0,1-2.493,2.911,3.1,3.1,0,0,1-1.754.894,8.211,8.211,0,0,1-1.974-.542.9.9,0,0,0-.778.3,17.658,17.658,0,0,0-1.029,2.278,15.136,15.136,0,0,0-.719,2.36,12.187,12.187,0,0,0-.173,2.285,2.917,2.917,0,0,0,.306.9,3.9,3.9,0,0,0,.9-.5c3.442-3.372,6.813-6.819,10.315-10.126C88.41,46.47,91,44.353,93.546,42.2a5.223,5.223,0,0,1,1.565-.83c1.55-.57,2.658.512,2.577,2.5-.095,2.362-1.321,4.214-2.687,6.022-1.947,2.576-3.839,5.192-5.762,7.786-.2.274-.482.492-.67.773a2.6,2.6,0,0,0-.225.666,2.354,2.354,0,0,0,.687.079c.424-.076.828-.274,1.252-.334,2.329-.325,3.462.514,3.895,2.849.124.669.477.814,1.006.4,2.659-2.081,5.461-4.009,7.928-6.3,3.915-3.63,6.967-7.888,7.717-13.372.185-1.358.337-2.841-.781-3.983-.271-.277-.712-.379-1.027-.624a5.935,5.935,0,0,1-.7-.77c.34-.1.766-.394,1.006-.284a5.22,5.22,0,0,1,3.126,4.188c.458,3.083-.557,5.867-1.69,8.65-2.248,5.518-6.668,8.993-11.364,12.214-1.515,1.038-3.12,1.947-4.623,3a2.742,2.742,0,0,0-.919,1.365,31.157,31.157,0,0,1-8.9,14.289,5.614,5.614,0,0,1-6.151.839c-1.522-.6-1.974-2.436-1-4.308a21.96,21.96,0,0,1,6.812-7.656c2.551-1.848,5.173-3.6,7.758-5.4a2.853,2.853,0,0,0,.52-3.358c-.512-1.01-1.417-.836-2.277-.622a10.9,10.9,0,0,0-6.041,3.956c-.434.548-1.045,1.271-1.789.618-.921-.809-1.289-1.584-.383-2.535A97.13,97.13,0,0,0,93.906,47.111,24.581,24.581,0,0,0,95.138,44.9a2.07,2.07,0,0,0,.058-.764c-.278-.005-.64-.127-.821,0a55.147,55.147,0,0,0-5.817,4.344c-3.877,3.652-7.579,7.488-11.341,11.261a2.879,2.879,0,0,1-3.966-.109,13.4,13.4,0,0,1-1-1.5.71.71,0,0,0-.175-.187c-.014-.011-.1.062-.141.109a19.947,19.947,0,0,1-1.554,1.906,9.047,9.047,0,0,1-2.277,1.77,2.709,2.709,0,0,1-2.07.007,2.382,2.382,0,0,1-1.43-2.778,16.056,16.056,0,0,1,.736-2.176c.3-.787.6-1.575.951-2.338.473-1.024,1-2.026,1.5-3.035.082-.163.183-.317.275-.475l.328-.428.311-.177-.163-.14-.142.323-.373.39A16.11,16.11,0,0,0,66.715,52c-.574.585-1.106,1.215-1.627,1.849-.36.438-.661.925-1.006,1.376-.871,1.14-1.78,2.253-2.618,3.415-.483.669-.788,1.472-1.306,2.106a2.426,2.426,0,0,1-1.454.994c-.345.006-1.017-.833-1-1.269a13.237,13.237,0,0,1,.663-3.292,18.1,18.1,0,0,1,1.23-2.841c.543-1.052,1.184-2.054,1.772-3.084a.86.86,0,0,0,.036-.327c.105-.077.21-.154.316-.23l-.148-.114ZM79.681,80.346c1.365-.78,2.7-1.2,3.542-2.09,2.411-2.568,4.658-5.294,6.882-8.029a14.079,14.079,0,0,0,1.433-2.714c.067-.137,0-.34,0-.513a1.458,1.458,0,0,0-.53.117c-.382.268-.725.591-1.094.878-2.348,1.823-4.764,3.565-7.027,5.488A9.934,9.934,0,0,0,79.3,79.237C79.245,79.5,79.49,79.822,79.681,80.346ZM42.443,56.467l.291.094a1.572,1.572,0,0,0,0,.376c.188.743-.041,1.7,1.357,1.6,1.093-.077,1.284-.885,1.654-1.5a26.723,26.723,0,0,0,1.687-3.445c.437-1.048.748-2.15,1.108-3.23a9.183,9.183,0,0,0,.447-1.484,4.512,4.512,0,0,0-.118-1.149,3.643,3.643,0,0,0-.621.216,16.755,16.755,0,0,0-1.625.98A6.374,6.374,0,0,0,45.04,50.28a14.808,14.808,0,0,0-1.479,2.808C43.112,54.183,42.809,55.338,42.443,56.467Zm-3.535,6.4c.08.628.158,1.364.285,2.091.019.109.364.282.4.247a11.026,11.026,0,0,0,1.192-1.155q1.427-1.685,2.789-3.423a.7.7,0,0,0,0-.669,24.66,24.66,0,0,0-2.147-1.605c-.2-.13-.711-.166-.753-.082a25.043,25.043,0,0,0-1.008,2.337C39.4,61.317,39.183,62.043,38.908,62.869ZM77.634,49.757a2.222,2.222,0,0,0,.157.5,4.715,4.715,0,0,0,1.922-.188,7.065,7.065,0,0,0,2.973-3.794,6.8,6.8,0,0,0,.437-1.146,3.152,3.152,0,0,0-.055-.968.292.292,0,0,0-.234-.049,21.566,21.566,0,0,0-1.815,1.477,29.05,29.05,0,0,0-2.131,2.32C78.413,48.49,78.04,49.152,77.634,49.757Zm4.881,31.1c.878-.776,1.759-1.549,2.629-2.333.064-.058.055-.2.08-.3a.98.98,0,0,0-.309.087q-1.358.927-2.7,1.873a.35.35,0,0,0-.144.271C82.085,80.541,82.216,80.6,82.515,80.86Zm7.5-8.941-.113-.133a1.7,1.7,0,0,0-.184.206c-.013.019.041.082.065.124Z"/>
    <path class="cls-1" d="M68.12,27.83c.486-.415.986-.813,1.454-1.246.771-.714,1.52-1.45,2.28-2.175.578-.552,1.155-1.1,1.738-1.651.513-.483,1.064-.93,1.543-1.444s.838-1.1,1.3-1.6a7.8,7.8,0,0,1,2.1-1.973c.408-.187,1.313.518,1.889.956.359.273.811.886.719,1.2a8.806,8.806,0,0,1-1.133,2.036c-.279.445-.608.86-.91,1.291-.685.981-1.4,1.942-2.037,2.954a15.343,15.343,0,0,0-.793,1.753c-.3.658-.644,1.3-.926,1.967A5.861,5.861,0,0,0,75,31.11q-.372,2.019-.686,4.047c-.018.113.154.255.238.383.1-.121.2-.247.307-.363a17.105,17.105,0,0,0,1.392-1.528,10.383,10.383,0,0,0,.552-1.315c.429-.826.907-1.625,1.355-2.441.377-.688.684-1.421,1.124-2.065a14.508,14.508,0,0,1,1.462-1.689c.556-.592,1.125-1.174,1.723-1.723a19.725,19.725,0,0,1,1.629-1.341c.636-.471,1.305-.9,1.961-1.339.288-.194.57-.4.873-.569a5.5,5.5,0,0,1,3.635-.847,6.908,6.908,0,0,1,2.363.741c.706.419,1.542.957,1.3,2.049-.033.147-.244.378-.347.365-.352-.043-.883-.076-1-.3-.359-.671-.624-1.333-1.58-1.083-.041.01-.082.022-.123.034a.558.558,0,0,0,.052.032l.308.158a2.238,2.238,0,0,0-.423.091c-.842.359-1.695.7-2.513,1.107a6.91,6.91,0,0,0-1.438.945c-.606.528-1.144,1.134-1.71,1.708s-1.136,1.107-1.655,1.7c-.454.522-.842,1.1-1.253,1.661s-.823,1.111-1.214,1.681c-.308.448-.582.919-.877,1.377s-.61.871-.867,1.334a7.3,7.3,0,0,0-.5,1.2,6.337,6.337,0,0,0-.325,1.283,2.794,2.794,0,0,0,.16.834,6.067,6.067,0,0,0,1-.489c.58-.423,1.12-.9,1.676-1.358.525-.43,1.052-.859,1.576-1.291.415-.343.833-.683,1.24-1.037.674-.588,1.339-1.187,2.01-1.779a12.1,12.1,0,0,0,1.309-1.17c.346-.409.518-.959.845-1.389.653-.86,1.336-1.7,2.056-2.506.253-.283.669-.638.976-.608a2.578,2.578,0,0,1,1.5.64c.155.155-.137.9-.386,1.278-.5.753-1.107,1.434-1.67,2.144-.43.543-.881,1.07-1.283,1.633a6.057,6.057,0,0,0-.713,1.25c-.283.717-.5,1.46-.719,2.2-.032.109.062.366.111.37a.939.939,0,0,0,.554-.094c.487-.314.962-.652,1.415-1.013.57-.454,1.116-.937,1.671-1.41.661-.563,1.333-1.114,1.976-1.7.421-.381.787-.821,1.2-1.214.524-.5,1.083-.968,1.6-1.479.438-.434.835-.91,1.251-1.366q.572-.629,1.146-1.256c.03.072.093.148.085.215-.265,2.261-1.792,3.728-3.29,5.214-.762.755-1.491,1.543-2.273,2.275-.647.6-1.336,1.169-2.034,1.715a14.329,14.329,0,0,1-1.7,1.169A14.033,14.033,0,0,1,87.6,37.371c-.235.079-.873-.358-.966-.667-.308-1.018-.451-2.086-.658-3.135a.815.815,0,0,0-.056-.138c-.048.041-.1.081-.145.125-.472.443-.949.882-1.414,1.333-.413.4-.831.8-1.218,1.225-1.115,1.23-2.175,2.567-3.914,2.9a3.132,3.132,0,0,1-1.485-.43,1.534,1.534,0,0,1-.719-.5c-.348-.535-.61-1.124-.914-1.688a.244.244,0,0,0-.167-.113c-.035,0-.069.1-.12.136-.326.2-.66.383-.986.581a14.7,14.7,0,0,1-1.559.945c-.731.326-1.243.045-1.52-.724-.347-.966-.773-1.9-1.09-2.878-.077-.236.185-.563.212-.856a11.679,11.679,0,0,1,.031-1.366c.306-1.432.63-2.864,1.039-4.269a12.831,12.831,0,0,1,.865-1.732c.061-.131-.013-.325-.025-.49a3.047,3.047,0,0,0-.47.34c-.782.825-1.539,1.674-2.33,2.49-.537.553-1.141,1.042-1.666,1.606-.416.447-.746.973-1.134,1.447-.436.532-.908,1.036-1.34,1.571-.542.67-1.048,1.37-1.59,2.039-.387.478-.811.924-1.212,1.39-.223.258-.383.631-.662.767a2.29,2.29,0,0,1-1.292.266c-.753-.133-.94-.717-.771-1.429a1,1,0,0,0-.011-.272c.108-.115.22-.228.323-.347.013-.015-.015-.067-.025-.1l-.292.453a3.564,3.564,0,0,0-1.036.495c-.616.606-2.132.575-2.52-.218a5.336,5.336,0,0,1-.566-2.213c-.005-.491.469-.983.714-1.482a4.444,4.444,0,0,0,.189-.553,5.154,5.154,0,0,0-.64.5c-.568.6-1.1,1.223-1.671,1.823a10.067,10.067,0,0,1-1.611,1.6c-.865.571-1.6,1.7-2.782,1.345a7.09,7.09,0,0,1-1.94-1.457c-.074-.058-.14-.124-.21-.187a2.238,2.238,0,0,1-.2.223,15.594,15.594,0,0,1-1.93,1.655,3.469,3.469,0,0,1-1.68.409,2.9,2.9,0,0,1-2.347-2.28c.129-4.268,4.476-10.451,4.931-11.15.488-.753,2.416-3.058,2.768-3.54a1.158,1.158,0,0,1,1.887-.087c.172.179.462.238.667.393,1.112.837-.1,1.177-.4,1.669a17.657,17.657,0,0,1-1.312,1.728c-.547.686-1.117,1.354-1.661,2.042-.261.329-.486.687-.726,1.032-.477.685-.983,1.353-1.42,2.062-.312.506-.518,1.075-.794,1.6-.368.7-.8,1.377-1.127,2.1a17.059,17.059,0,0,0-.582,1.753c-.062.189-.15.369-.2.56a.953.953,0,0,0,.012.3c.312-.043.7.017.923-.147.732-.539,1.4-1.163,2.1-1.746a5.589,5.589,0,0,0,1.974-2.537,14.769,14.769,0,0,1,1.613-2.794c.494-.809.976-1.627,1.521-2.4a15.466,15.466,0,0,1,1.214-1.377c.537-.595,1.037-1.23,1.625-1.769a11.873,11.873,0,0,1,1.7-1.231c.6-.381,1.245-.7,1.87-1.045a1.256,1.256,0,0,1,.315-.166,6.067,6.067,0,0,1,1.778-.338,14.577,14.577,0,0,1,3.32.67c.422.146.648.846.975,1.286.079.105.258.158.294.267s-.031.373-.078.379c-.266.034-.684.123-.785-.009a1.516,1.516,0,0,0-1.8-.545A15.174,15.174,0,0,0,60.2,23.589a17.181,17.181,0,0,0-2.646,1.687,28.148,28.148,0,0,0-2.406,2.417c-.531.557-1.041,1.137-1.544,1.721a14.106,14.106,0,0,0-.927,1.183,17.713,17.713,0,0,0-1.16,1.812,17.339,17.339,0,0,0-.936,2.169,1.764,1.764,0,0,0-.151,1.173c.4.8.928.047,1.188-.148,1.252-.937,2.455-1.947,3.612-3,.832-.758,1.553-1.637,2.346-2.441.449-.456.993-.827,1.4-1.314.531-.631.942-1.359,1.456-2.006.383-.482.855-.891,1.27-1.349a8.349,8.349,0,0,1,1.2-1.346,3.805,3.805,0,0,1,1.618-.543c.147-.021.576.562.513.743a4.676,4.676,0,0,1-.778,1.081c-.437.6-.87,1.194-1.293,1.8-.458.656-.94,1.3-1.343,1.989-.419.716-.748,1.485-1.13,2.223-.321.618-.678,1.218-.99,1.84a11.983,11.983,0,0,0-.515,1.245c-.015.041.118.192.187.2.087,0,.185-.083.268-.145.406-.3.824-.586,1.208-.912a19.06,19.06,0,0,0,2-1.793,14.852,14.852,0,0,0,1.427-2.088c.41-.661.737-1.373,1.156-2.027.383-.6.862-1.134,1.259-1.724.419-.622.782-1.282,1.186-1.914.311-.486.659-.949.972-1.435a6.627,6.627,0,0,0,.776-1.327c.365-1.046,1.563-2.2,2.508-2.013.54.106,1.344.744,1.36,1.167.02.535-.625,1.107-1.014,1.64-.423.58-.884,1.132-1.325,1.7-.544.7-1.1,1.385-1.618,2.105-.434.607-.811,1.255-1.212,1.886l-.329.237.162.139Zm6.585,8.814-.178-.261a.961.961,0,0,0-.134.209c-.01.03.062.124.093.123A.78.78,0,0,0,74.705,36.644Z"/>
    <path class="cls-1" d="M19.861,40.291a22.735,22.735,0,0,1-3.075-.5,7.88,7.88,0,0,1-3.848-2.358c-.648-.749-1.471-1.347-2.122-2.094a4.5,4.5,0,0,1-.905-1.628A7.344,7.344,0,0,1,9.453,31c.069-.683.7-1.31,1.076-1.963.358.234.949.407,1.029.713.18.689-.019,1.478.166,2.164.259.956.775,1.84,1.094,2.784.3.881.987,1,1.743,1.119a13.9,13.9,0,0,0,2.512.456c.919-.027,1.852-.031,2.4-1.265,2.026-3.481,6.494-10.831,6.789-11.284.531-.814,4.442-6.421,4.749-6.836.383-.515,1.584-2.122,1.786-2.422.406-.6.774-1.234,1.235-1.79.338-.409,2.17-.043,2.562.422a9.187,9.187,0,0,1,1.184,1.347,1.282,1.282,0,0,1-.183,1.133c-.624.777-4.569,5.081-5,5.6-.536.639-4.159,5.205-4.387,5.472-.422.493-5.891,8.19-6.123,8.668-.045.094.075.27.119.408,3.869-.338,8.559-3.252,9.038-3.584.62-.43,3.082-2.252,3.7-2.721.719-.546,1.385-1.162,2.08-1.741.58-.482,1.192-.927,1.746-1.437.439-.4,2.178-2.272,2.609-2.789.322-.386,5.271-6.211,4.413-9.5a5.534,5.534,0,0,0-1.668-2.337c-.572-.429-2.9-1.378-6.618-.949-2.521.291-4.429.714-9.344,3.228-.552.283-3.268,2.127-4.093,2.733-.422.311-2.39,1.762-2.9,2.231a48.951,48.951,0,0,0-3.7,4.477,5.348,5.348,0,0,0-.617,3.694,7.074,7.074,0,0,0,.346,1.114.842.842,0,0,1,.016.458.345.345,0,0,1-.309.121,11.107,11.107,0,0,1-1.906-1.416,5.2,5.2,0,0,1-1.065-1.873,6.783,6.783,0,0,1,.138-3.832A10.067,10.067,0,0,1,16.1,17.93c3.539-4.4,9.566-7.047,10.668-7.566,3.158-1.549,9.419-2.227,10.112-2.223a17.262,17.262,0,0,1,3.713.272,8.949,8.949,0,0,1,6.477,3.831,7.437,7.437,0,0,1,.572,4.714c.026,2.632-2.715,8.858-9.187,14.572a44,44,0,0,1-6.815,5.144A29.518,29.518,0,0,1,19.861,40.291Z"/>
    <path class="cls-1" d="M80.153,69.726a2.486,2.486,0,0,1-.732.107c-.1-.014-.139-.313-.251-.445a7.456,7.456,0,0,0-1.546-1.721,8.6,8.6,0,0,0-5.636-1.006c-1.8.238-3.555.828-5.336,1.234-.929.212-1.878.338-2.808.547-.526.119-1.025.358-1.549.489-.454.114-.953.08-1.387.235-1.5.539-2.984,1.125-4.469,1.7-1.336.521-2.681,1.024-3.994,1.6-1.454.636-2.872,1.354-4.313,2.021-.881.409-1.785.767-2.66,1.187-1.232.591-2.45,1.212-3.668,1.832-1.3.664-2.608,1.324-3.894,2.02a2.513,2.513,0,0,1-2.838-1.13,5.987,5.987,0,0,1-.555-1c-.052-.212.177-.506.309-.748a4.075,4.075,0,0,1,.669-1.074c.2-.187.623-.112.91-.237.538-.234,1.05-.527,1.572-.8.588-.306,1.174-.615,1.762-.92.918-.477,1.828-.971,2.761-1.419.577-.277,1.2-.465,1.785-.722,1.064-.465,2.087-1.049,3.185-1.407,1.561-.511,3.191-.811,4.762-1.3,1.164-.361,2.274-.9,3.421-1.321.8-.3,1.619-.551,2.44-.79A32.194,32.194,0,0,1,62.031,65.6c3.618-.566,7.244-1.157,10.891-1.431a8.48,8.48,0,0,1,4.2,1.065c.828.418,1.328,1.533,1.9,2.383a12.954,12.954,0,0,1,.82,1.672Z"/>
    <path class="cls-1" d="M54.134,18.635c-.532-.389-.961-.542-1-.768a2.3,2.3,0,0,1,.15-1.3A23.846,23.846,0,0,1,54.564,14.2c.485-.817,1.017-1.607,1.519-2.414A6.369,6.369,0,0,1,57.2,10.051,2.34,2.34,0,0,1,58.92,9.8a3.687,3.687,0,0,1,1.44.911c.167.141.189.487.211.745.006.078-.217.166-.321.264-.669.628-1.355,1.239-1.995,1.9-.553.568-1.066,1.178-1.573,1.79-.385.466-.724.97-1.1,1.445C55.13,17.424,54.66,17.988,54.134,18.635Z"/>
    <path class="cls-1" d="M80.317,56.681q-.676.777-1.355,1.552c-.012.013-.06-.007-.091-.012.011-.03.012-.069.033-.089q.708-.724,1.419-1.445Z"/>
    <path class="cls-1" d="M80.323,56.687a1.124,1.124,0,0,1,.129-.2c.158-.161.324-.315.488-.471.013.041.05.109.037.12-.216.185-.439.363-.66.543Z"/>
    <path class="cls-1" d="M93.755,23.567l.271.09a1.207,1.207,0,0,1-.288.105.764.764,0,0,1-.253-.068Z"/>
    <path class="cls-1" d="M82.515,80.86c-.3-.259-.43-.319-.444-.4a.35.35,0,0,1,.144-.271q1.341-.948,2.7-1.873a.98.98,0,0,1,.309-.087c-.025.1-.016.239-.08.3C84.274,79.311,83.393,80.084,82.515,80.86Z"/>
    <path class="cls-1" d="M63.122,53.665l-.481.775a2.065,2.065,0,0,1-.155-.207c.207-.2.426-.377.643-.561Z"/>
    <path class="cls-1" d="M68.4,50.513l-.328.428-.039-.032.373-.39Z"/>
    <path class="cls-1" d="M61.413,50.934l.162-.35.148.114c-.106.076-.211.153-.316.23Z"/>
    <path class="cls-1" d="M27.205,63.882l.135-.325.15.113-.291.206Z"/>
    <path class="cls-1" d="M68.4,50.519l.142-.323.163.14-.311.177Z"/>
    <path class="cls-1" d="M90.011,71.919l-.232.2c-.024-.042-.078-.105-.065-.124a1.7,1.7,0,0,1,.184-.206Z"/>
    <path class="cls-1" d="M68.12,27.83l-.16.382-.162-.139.329-.237Z"/>
    <path class="cls-1" d="M60.314,35.853l.292-.453c.01.034.038.086.025.1-.1.119-.215.232-.323.347Z"/>
    <path class="cls-1" d="M74.705,36.644a.78.78,0,0,1-.219.071c-.031,0-.1-.093-.093-.123a.961.961,0,0,1,.134-.209Z"/>
  </g>
</svg>
