<svg id="Capa_1" data-name="Capa 1" xmlns="http://www.w3.org/2000/svg" viewBox="0 0 172.805 96.909">
  <defs>
    <style>
      .cls-1 {
        fill: #00fff7;
      }
    </style>
  </defs>
  <title>namelogo</title>
  <g>
    <polygon class="cls-1" points="126.85 35.877 137.783 32.906 153.46 16.044 157.825 21.491 150.396 23.511 142.905 31.514 167.894 24.722 167.871 24.695 167.886 24.691 157.171 12.052 168.377 0 157.799 2.98 153.423 7.632 149.803 11.479 126.85 35.877"/>
    <polygon class="cls-1" points="47.642 51.306 43.382 52.46 49.503 40.44 41.086 42.663 32.632 61.272 49.993 56.6 50.081 56.594 80.727 23.673 79.73 23.944 79.807 23.863 16.611 41.059 11.544 47.951 63.243 34.217 47.642 51.306"/>
    <polygon class="cls-1" points="70.74 51.095 81.673 48.123 97.35 31.261 101.715 36.708 94.286 38.728 86.795 46.731 111.784 39.939 111.761 39.912 111.775 39.909 106.701 33.922 116.868 22.834 116.073 35.293 115.826 39.139 121.332 37.49 151.977 4.57 141.525 7.411 121.977 28.824 123.199 12.406 117.443 13.829 103.108 29.685 101.061 27.27 112.266 15.217 101.689 18.197 97.313 22.849 93.693 26.697 70.74 51.095"/>
    <polygon class="cls-1" points="135.705 54.665 158.946 29.87 120.524 40.193 113.309 48.089 141.17 40.598 118.32 65.288 165.836 52.619 172.805 44.788 135.705 54.665"/>
    <path class="cls-1" d="M415.707,666.814l-12.185,3.267,4.145-4.453,12.372-3.317,7.338-7.929L404.633,660.5h0l-8.248,8.519.795-12.459.246-3.846-5.506,1.649L372.4,675.329l1.174-15.777h0l-6.108,1.634-.006.005L358,663.726l33.877-36.47L381.427,630.1l-33.094,36.221-9.6,2.573v0l0,.01,8.644,22.24h0l19.881-21.356-.759,11.879-.271,4.25,5.495-1.473,19.547-21.414L390.041,679.6h0l18.473-4.892Zm-66.239,13.8-3.1-7.968,14.363-4.287Z" transform="translate(-295.397 -608)"/>
    <polygon class="cls-1" points="43.52 69.437 41.513 64.257 25.859 81.12 36.459 78.009 39.435 74.425 41.627 79.787 17.137 86.353 40.431 61.501 29.969 64.306 0 96.909 49.086 83.748 46.986 78.349 43.52 69.437"/>
  </g>
</svg>
